<svg width="1600" height="82" viewBox="0 0 1600 82" fill="none" xmlns="http://www.w3.org/2000/svg">
<g filter="url(#filter0_f_448_411)">
<path d="M46.4381 48.9103C46.1906 47.1873 45.8094 45.4764 45.2981 43.793C44.7778 42.1131 44.1383 40.4573 43.3615 38.8514C42.572 37.2525 41.6651 35.6966 40.6227 34.2165C40.3662 33.8444 40.0934 33.4808 39.8224 33.1172C39.5424 32.7589 39.2606 32.4022 38.9661 32.0559C38.379 31.3581 37.7702 30.6757 37.1234 30.0245C36.4821 29.3697 35.8137 28.7356 35.1181 28.1309C34.7749 27.8242 34.4154 27.533 34.0595 27.2366C33.6964 26.9506 33.3332 26.6629 32.9593 26.3889C31.4707 25.2879 29.899 24.2799 28.255 23.3995C26.6146 22.5104 24.9128 21.7316 23.1695 21.0545L20.4524 20L20.3783 22.8947L20.2772 26.7387L20.2591 27.4692C20.2465 27.9138 20.2392 28.3583 20.2284 28.8028C20.2049 29.8832 20.185 30.9635 20.1652 32.0438L20.0839 36.6201L20.0351 41.1947C20.0188 42.7196 20.0026 44.2444 20.0062 45.7693C20.0062 47.2941 19.9936 48.819 20.0044 50.3439C20.0206 53.3936 20.0423 56.4433 20.1254 59.4947L20.1941 62L22.7142 61.6864H22.716L22.8588 61.6657L22.9726 61.6468L23.1876 61.6089L23.5977 61.5279C23.8668 61.471 24.1288 61.4107 24.3907 61.347C24.911 61.2178 25.4205 61.0747 25.9245 60.9197C26.9326 60.6078 27.9135 60.2425 28.8728 59.8307C30.7896 59.0054 32.6124 57.9871 34.2907 56.7845C35.9708 55.5818 37.5046 54.1931 38.8397 52.6527C40.1747 51.1123 41.3074 49.4255 42.227 47.6542L42.7455 46.6515C42.5323 46.0984 42.3046 45.5505 42.0644 45.0112C41.7392 44.2737 41.3887 43.5501 41.0166 42.8471L39.2624 46.169C38.3645 47.6835 37.2968 49.093 36.0738 50.3559C34.8489 51.6189 33.4705 52.7354 31.9765 53.6865C30.4843 54.6393 28.8746 55.4285 27.1999 56.0453C26.4159 56.333 25.6174 56.5846 24.8117 56.7931C24.8478 54.6445 24.8641 52.4959 24.8749 50.3473C24.8857 48.8224 24.8731 47.2976 24.8731 45.7727C24.8749 44.2479 24.8604 42.723 24.8442 41.1981L24.7954 36.6236L24.7141 32.0438C24.7051 31.5528 24.6942 31.06 24.6852 30.5689C24.6726 29.8797 24.6599 29.1905 24.6437 28.4996C24.6364 28.155 24.6292 27.8121 24.6202 27.4675L24.5768 25.7996C25.2109 26.0598 25.8414 26.3303 26.4611 26.6198C28.0021 27.3383 29.4889 28.1584 30.9142 29.0682C32.3324 29.9865 33.7 30.9859 34.97 32.0955C36.2472 33.1982 37.4233 34.4112 38.5235 35.6897C39.6255 36.9682 40.6173 38.3414 41.5098 39.7767C42.4112 41.2085 43.2061 42.7109 43.8908 44.2651C44.5827 45.8175 45.1699 47.4199 45.6432 49.0619C45.8835 49.8821 46.0948 50.7109 46.2719 51.55C46.4543 52.3873 46.6043 53.2333 46.7 54.0897C46.8084 52.3684 46.6729 50.6333 46.4381 48.9103ZM22.165 57.3031C22.1614 57.3048 22.1632 57.3048 22.165 57.3031V57.3031Z" fill="#4A90AE"/>
<path d="M48.6134 24.4402C48.7634 23.0687 48.8952 21.5921 49 20L43.6291 27.0006L45.4844 26.0633C44.9443 30.9549 44.2433 33.1414 43.6291 35.2434C44.1711 36.1429 44.6841 37.0784 45.1611 38.0451C45.2713 38.2725 45.3778 38.4999 45.4826 38.7308C45.8945 37.7073 47.6379 33.3499 48.6098 24.4815H48.6116L48.6134 24.4402Z" fill="#4A90AE"/>
</g>
<path d="M46.4381 48.9103C46.1906 47.1873 45.8094 45.4764 45.2981 43.793C44.7778 42.1131 44.1383 40.4573 43.3615 38.8514C42.572 37.2525 41.6651 35.6966 40.6227 34.2165C40.3662 33.8444 40.0934 33.4808 39.8224 33.1172C39.5424 32.7589 39.2606 32.4022 38.9661 32.0559C38.379 31.3581 37.7702 30.6757 37.1234 30.0245C36.4821 29.3697 35.8136 28.7356 35.1181 28.1309C34.7749 27.8242 34.4154 27.533 34.0595 27.2366C33.6964 26.9506 33.3332 26.6629 32.9593 26.3889C31.4707 25.2879 29.899 24.2799 28.255 23.3995C26.6146 22.5104 24.9128 21.7316 23.1695 21.0545L20.4524 20L20.3783 22.8947L20.2772 26.7387L20.2591 27.4692C20.2465 27.9138 20.2392 28.3583 20.2284 28.8028C20.2049 29.8832 20.185 30.9635 20.1652 32.0438L20.0839 36.6201L20.0351 41.1947C20.0188 42.7196 20.0026 44.2444 20.0062 45.7693C20.0062 47.2941 19.9936 48.819 20.0044 50.3439C20.0206 53.3936 20.0423 56.4433 20.1254 59.4947L20.1941 62L22.7142 61.6864H22.716L22.8588 61.6657L22.9726 61.6468L23.1876 61.6089L23.5976 61.5279C23.8668 61.471 24.1288 61.4107 24.3907 61.347C24.911 61.2178 25.4205 61.0747 25.9245 60.9197C26.9326 60.6078 27.9135 60.2425 28.8728 59.8307C30.7896 59.0054 32.6124 57.9871 34.2907 56.7845C35.9708 55.5818 37.5046 54.1931 38.8396 52.6527C40.1747 51.1123 41.3074 49.4255 42.227 47.6542L42.7454 46.6515C42.5323 46.0984 42.3046 45.5505 42.0644 45.0112C41.7392 44.2737 41.3887 43.5501 41.0166 42.8471L39.2624 46.169C38.3645 47.6835 37.2968 49.093 36.0738 50.3559C34.8489 51.6189 33.4705 52.7354 31.9765 53.6865C30.4843 54.6393 28.8746 55.4285 27.1999 56.0453C26.4159 56.333 25.6174 56.5846 24.8117 56.7931C24.8478 54.6445 24.8641 52.4959 24.8749 50.3473C24.8857 48.8224 24.8731 47.2976 24.8731 45.7727C24.8749 44.2479 24.8604 42.723 24.8442 41.1981L24.7954 36.6236L24.7141 32.0438C24.7051 31.5528 24.6942 31.06 24.6852 30.5689C24.6726 29.8797 24.6599 29.1905 24.6437 28.4996C24.6364 28.155 24.6292 27.8121 24.6202 27.4675L24.5768 25.7996C25.2109 26.0598 25.8414 26.3303 26.4611 26.6198C28.0021 27.3383 29.4889 28.1584 30.9142 29.0682C32.3324 29.9865 33.7 30.9859 34.97 32.0955C36.2472 33.1982 37.4233 34.4112 38.5235 35.6897C39.6255 36.9682 40.6173 38.3414 41.5098 39.7767C42.4112 41.2085 43.2061 42.7109 43.8908 44.2651C44.5827 45.8175 45.1699 47.4199 45.6432 49.0619C45.8834 49.8821 46.0948 50.7109 46.2719 51.55C46.4543 52.3873 46.6043 53.2333 46.7 54.0897C46.8084 52.3684 46.6729 50.6333 46.4381 48.9103ZM22.165 57.3031C22.1614 57.3048 22.1632 57.3048 22.165 57.3031V57.3031Z" fill="white"/>
<path d="M48.6134 24.4402C48.7633 23.0687 48.8952 21.5921 49 20L43.6291 27.0006L45.4844 26.0633C44.9443 30.9549 44.2433 33.1414 43.6291 35.2434C44.1711 36.1429 44.6841 37.0784 45.1611 38.0451C45.2713 38.2725 45.3778 38.4999 45.4826 38.7308C45.8945 37.7073 47.6379 33.3499 48.6098 24.4815H48.6116L48.6134 24.4402Z" fill="white"/>
<path d="M70.5312 36.1328L66.7656 46.5H65.2266L69.5625 35.125H70.5547L70.5312 36.1328ZM73.6875 46.5L69.9141 36.1328L69.8906 35.125H70.8828L75.2344 46.5H73.6875ZM73.4922 42.2891V43.5234H67.1016V42.2891H73.4922ZM78.1094 34.5V46.5H76.6562V34.5H78.1094ZM82.5859 46.5H81.1406V37.1562C81.1406 36.5469 81.25 36.0339 81.4688 35.6172C81.6927 35.1953 82.013 34.8776 82.4297 34.6641C82.8464 34.4453 83.3411 34.3359 83.9141 34.3359C84.0807 34.3359 84.2474 34.3464 84.4141 34.3672C84.5859 34.388 84.7526 34.4193 84.9141 34.4609L84.8359 35.6406C84.7266 35.6146 84.6016 35.5964 84.4609 35.5859C84.3255 35.5755 84.1901 35.5703 84.0547 35.5703C83.7474 35.5703 83.4818 35.6328 83.2578 35.7578C83.0391 35.8776 82.8724 36.0547 82.7578 36.2891C82.6432 36.5234 82.5859 36.8125 82.5859 37.1562V46.5ZM84.3828 38.0469V39.1562H79.8047V38.0469H84.3828ZM90.9766 45.0547V40.7031C90.9766 40.3698 90.9089 40.0807 90.7734 39.8359C90.6432 39.5859 90.4453 39.3932 90.1797 39.2578C89.9141 39.1224 89.5859 39.0547 89.1953 39.0547C88.8307 39.0547 88.5104 39.1172 88.2344 39.2422C87.9635 39.3672 87.75 39.5312 87.5938 39.7344C87.4427 39.9375 87.3672 40.1562 87.3672 40.3906H85.9219C85.9219 40.0885 86 39.7891 86.1562 39.4922C86.3125 39.1953 86.5365 38.9271 86.8281 38.6875C87.125 38.4427 87.4792 38.25 87.8906 38.1094C88.3073 37.9635 88.7708 37.8906 89.2812 37.8906C89.8958 37.8906 90.4375 37.9948 90.9062 38.2031C91.3802 38.4115 91.75 38.7266 92.0156 39.1484C92.2865 39.5651 92.4219 40.0885 92.4219 40.7188V44.6562C92.4219 44.9375 92.4453 45.237 92.4922 45.5547C92.5443 45.8724 92.6198 46.1458 92.7188 46.375V46.5H91.2109C91.138 46.3333 91.0807 46.112 91.0391 45.8359C90.9974 45.5547 90.9766 45.2943 90.9766 45.0547ZM91.2266 41.375L91.2422 42.3906H89.7812C89.3698 42.3906 89.0026 42.4245 88.6797 42.4922C88.3568 42.5547 88.0859 42.651 87.8672 42.7812C87.6484 42.9115 87.4818 43.0755 87.3672 43.2734C87.2526 43.4661 87.1953 43.6927 87.1953 43.9531C87.1953 44.2188 87.2552 44.4609 87.375 44.6797C87.4948 44.8984 87.6745 45.0729 87.9141 45.2031C88.1589 45.3281 88.4583 45.3906 88.8125 45.3906C89.2552 45.3906 89.6458 45.2969 89.9844 45.1094C90.3229 44.9219 90.5911 44.6927 90.7891 44.4219C90.9922 44.151 91.1016 43.888 91.1172 43.6328L91.7344 44.3281C91.6979 44.5469 91.599 44.7891 91.4375 45.0547C91.276 45.3203 91.0599 45.5755 90.7891 45.8203C90.5234 46.0599 90.2057 46.2604 89.8359 46.4219C89.4714 46.5781 89.0599 46.6562 88.6016 46.6562C88.0286 46.6562 87.526 46.5443 87.0938 46.3203C86.6667 46.0964 86.3333 45.7969 86.0938 45.4219C85.8594 45.0417 85.7422 44.6172 85.7422 44.1484C85.7422 43.6953 85.8307 43.2969 86.0078 42.9531C86.1849 42.6042 86.4401 42.3151 86.7734 42.0859C87.1068 41.8516 87.5078 41.6745 87.9766 41.5547C88.4453 41.4349 88.9688 41.375 89.5469 41.375H91.2266ZM101.961 46.5H99.5859L99.6016 45.2734H101.961C102.773 45.2734 103.451 45.1042 103.992 44.7656C104.534 44.4219 104.94 43.9427 105.211 43.3281C105.487 42.7083 105.625 41.9844 105.625 41.1562V40.4609C105.625 39.8099 105.547 39.2318 105.391 38.7266C105.234 38.2161 105.005 37.7865 104.703 37.4375C104.401 37.0833 104.031 36.8151 103.594 36.6328C103.161 36.4505 102.664 36.3594 102.102 36.3594H99.5391V35.125H102.102C102.846 35.125 103.526 35.25 104.141 35.5C104.755 35.7448 105.284 36.1016 105.727 36.5703C106.174 37.0339 106.518 37.5964 106.758 38.2578C106.997 38.9141 107.117 39.6536 107.117 40.4766V41.1562C107.117 41.9792 106.997 42.7214 106.758 43.3828C106.518 44.0391 106.172 44.599 105.719 45.0625C105.271 45.526 104.729 45.8828 104.094 46.1328C103.464 46.3776 102.753 46.5 101.961 46.5ZM100.391 35.125V46.5H98.8828V35.125H100.391ZM110.734 38.0469V46.5H109.281V38.0469H110.734ZM109.172 35.8047C109.172 35.5703 109.242 35.3724 109.383 35.2109C109.529 35.0495 109.742 34.9688 110.023 34.9688C110.299 34.9688 110.51 35.0495 110.656 35.2109C110.807 35.3724 110.883 35.5703 110.883 35.8047C110.883 36.0286 110.807 36.2214 110.656 36.3828C110.51 36.5391 110.299 36.6172 110.023 36.6172C109.742 36.6172 109.529 36.5391 109.383 36.3828C109.242 36.2214 109.172 36.0286 109.172 35.8047ZM118.531 38.0469H119.844V46.3203C119.844 47.0651 119.693 47.7005 119.391 48.2266C119.089 48.7526 118.667 49.151 118.125 49.4219C117.589 49.6979 116.969 49.8359 116.266 49.8359C115.974 49.8359 115.63 49.7891 115.234 49.6953C114.844 49.6068 114.458 49.4531 114.078 49.2344C113.703 49.0208 113.388 48.7318 113.133 48.3672L113.891 47.5078C114.245 47.9349 114.615 48.2318 115 48.3984C115.391 48.5651 115.776 48.6484 116.156 48.6484C116.615 48.6484 117.01 48.5625 117.344 48.3906C117.677 48.2188 117.935 47.9635 118.117 47.625C118.305 47.2917 118.398 46.8802 118.398 46.3906V39.9062L118.531 38.0469ZM112.711 42.3672V42.2031C112.711 41.5573 112.786 40.9714 112.938 40.4453C113.094 39.9141 113.315 39.4583 113.602 39.0781C113.893 38.6979 114.245 38.4062 114.656 38.2031C115.068 37.9948 115.531 37.8906 116.047 37.8906C116.578 37.8906 117.042 37.9844 117.438 38.1719C117.839 38.3542 118.177 38.6224 118.453 38.9766C118.734 39.3255 118.956 39.7474 119.117 40.2422C119.279 40.737 119.391 41.2969 119.453 41.9219V42.6406C119.396 43.2604 119.284 43.8177 119.117 44.3125C118.956 44.8073 118.734 45.2292 118.453 45.5781C118.177 45.9271 117.839 46.1953 117.438 46.3828C117.036 46.5651 116.568 46.6562 116.031 46.6562C115.526 46.6562 115.068 46.5495 114.656 46.3359C114.25 46.1224 113.901 45.8229 113.609 45.4375C113.318 45.0521 113.094 44.599 112.938 44.0781C112.786 43.5521 112.711 42.9818 112.711 42.3672ZM114.156 42.2031V42.3672C114.156 42.7891 114.198 43.1849 114.281 43.5547C114.37 43.9245 114.503 44.25 114.68 44.5312C114.862 44.8125 115.094 45.0339 115.375 45.1953C115.656 45.3516 115.992 45.4297 116.383 45.4297C116.862 45.4297 117.258 45.3281 117.57 45.125C117.883 44.9219 118.13 44.6536 118.312 44.3203C118.5 43.987 118.646 43.625 118.75 43.2344V41.3516C118.693 41.0651 118.604 40.7891 118.484 40.5234C118.37 40.2526 118.219 40.013 118.031 39.8047C117.849 39.5911 117.622 39.4219 117.352 39.2969C117.081 39.1719 116.763 39.1094 116.398 39.1094C116.003 39.1094 115.661 39.1927 115.375 39.3594C115.094 39.5208 114.862 39.7448 114.68 40.0312C114.503 40.3125 114.37 40.6406 114.281 41.0156C114.198 41.3854 114.156 41.7812 114.156 42.2031ZM123.609 38.0469V46.5H122.156V38.0469H123.609ZM122.047 35.8047C122.047 35.5703 122.117 35.3724 122.258 35.2109C122.404 35.0495 122.617 34.9688 122.898 34.9688C123.174 34.9688 123.385 35.0495 123.531 35.2109C123.682 35.3724 123.758 35.5703 123.758 35.8047C123.758 36.0286 123.682 36.2214 123.531 36.3828C123.385 36.5391 123.174 36.6172 122.898 36.6172C122.617 36.6172 122.404 36.5391 122.258 36.3828C122.117 36.2214 122.047 36.0286 122.047 35.8047ZM129.469 38.0469V39.1562H124.898V38.0469H129.469ZM126.445 35.9922H127.891V44.4062C127.891 44.6927 127.935 44.9089 128.023 45.0547C128.112 45.2005 128.227 45.2969 128.367 45.3438C128.508 45.3906 128.659 45.4141 128.82 45.4141C128.94 45.4141 129.065 45.4036 129.195 45.3828C129.331 45.3568 129.432 45.3359 129.5 45.3203L129.508 46.5C129.393 46.5365 129.242 46.5703 129.055 46.6016C128.872 46.638 128.651 46.6562 128.391 46.6562C128.036 46.6562 127.711 46.5859 127.414 46.4453C127.117 46.3047 126.88 46.0703 126.703 45.7422C126.531 45.4089 126.445 44.9609 126.445 44.3984V35.9922ZM136.148 45.0547V40.7031C136.148 40.3698 136.081 40.0807 135.945 39.8359C135.815 39.5859 135.617 39.3932 135.352 39.2578C135.086 39.1224 134.758 39.0547 134.367 39.0547C134.003 39.0547 133.682 39.1172 133.406 39.2422C133.135 39.3672 132.922 39.5312 132.766 39.7344C132.615 39.9375 132.539 40.1562 132.539 40.3906H131.094C131.094 40.0885 131.172 39.7891 131.328 39.4922C131.484 39.1953 131.708 38.9271 132 38.6875C132.297 38.4427 132.651 38.25 133.062 38.1094C133.479 37.9635 133.943 37.8906 134.453 37.8906C135.068 37.8906 135.609 37.9948 136.078 38.2031C136.552 38.4115 136.922 38.7266 137.188 39.1484C137.458 39.5651 137.594 40.0885 137.594 40.7188V44.6562C137.594 44.9375 137.617 45.237 137.664 45.5547C137.716 45.8724 137.792 46.1458 137.891 46.375V46.5H136.383C136.31 46.3333 136.253 46.112 136.211 45.8359C136.169 45.5547 136.148 45.2943 136.148 45.0547ZM136.398 41.375L136.414 42.3906H134.953C134.542 42.3906 134.174 42.4245 133.852 42.4922C133.529 42.5547 133.258 42.651 133.039 42.7812C132.82 42.9115 132.654 43.0755 132.539 43.2734C132.424 43.4661 132.367 43.6927 132.367 43.9531C132.367 44.2188 132.427 44.4609 132.547 44.6797C132.667 44.8984 132.846 45.0729 133.086 45.2031C133.331 45.3281 133.63 45.3906 133.984 45.3906C134.427 45.3906 134.818 45.2969 135.156 45.1094C135.495 44.9219 135.763 44.6927 135.961 44.4219C136.164 44.151 136.273 43.888 136.289 43.6328L136.906 44.3281C136.87 44.5469 136.771 44.7891 136.609 45.0547C136.448 45.3203 136.232 45.5755 135.961 45.8203C135.695 46.0599 135.378 46.2604 135.008 46.4219C134.643 46.5781 134.232 46.6562 133.773 46.6562C133.201 46.6562 132.698 46.5443 132.266 46.3203C131.839 46.0964 131.505 45.7969 131.266 45.4219C131.031 45.0417 130.914 44.6172 130.914 44.1484C130.914 43.6953 131.003 43.2969 131.18 42.9531C131.357 42.6042 131.612 42.3151 131.945 42.0859C132.279 41.8516 132.68 41.6745 133.148 41.5547C133.617 41.4349 134.141 41.375 134.719 41.375H136.398ZM141.438 34.5V46.5H139.984V34.5H141.438ZM152.156 36.1328L148.391 46.5H146.852L151.188 35.125H152.18L152.156 36.1328ZM155.312 46.5L151.539 36.1328L151.516 35.125H152.508L156.859 46.5H155.312ZM155.117 42.2891V43.5234H148.727V42.2891H155.117ZM163.641 38.0469H164.953V46.3203C164.953 47.0651 164.802 47.7005 164.5 48.2266C164.198 48.7526 163.776 49.151 163.234 49.4219C162.698 49.6979 162.078 49.8359 161.375 49.8359C161.083 49.8359 160.74 49.7891 160.344 49.6953C159.953 49.6068 159.568 49.4531 159.188 49.2344C158.812 49.0208 158.497 48.7318 158.242 48.3672L159 47.5078C159.354 47.9349 159.724 48.2318 160.109 48.3984C160.5 48.5651 160.885 48.6484 161.266 48.6484C161.724 48.6484 162.12 48.5625 162.453 48.3906C162.786 48.2188 163.044 47.9635 163.227 47.625C163.414 47.2917 163.508 46.8802 163.508 46.3906V39.9062L163.641 38.0469ZM157.82 42.3672V42.2031C157.82 41.5573 157.896 40.9714 158.047 40.4453C158.203 39.9141 158.424 39.4583 158.711 39.0781C159.003 38.6979 159.354 38.4062 159.766 38.2031C160.177 37.9948 160.641 37.8906 161.156 37.8906C161.688 37.8906 162.151 37.9844 162.547 38.1719C162.948 38.3542 163.286 38.6224 163.562 38.9766C163.844 39.3255 164.065 39.7474 164.227 40.2422C164.388 40.737 164.5 41.2969 164.562 41.9219V42.6406C164.505 43.2604 164.393 43.8177 164.227 44.3125C164.065 44.8073 163.844 45.2292 163.562 45.5781C163.286 45.9271 162.948 46.1953 162.547 46.3828C162.146 46.5651 161.677 46.6562 161.141 46.6562C160.635 46.6562 160.177 46.5495 159.766 46.3359C159.359 46.1224 159.01 45.8229 158.719 45.4375C158.427 45.0521 158.203 44.599 158.047 44.0781C157.896 43.5521 157.82 42.9818 157.82 42.3672ZM159.266 42.2031V42.3672C159.266 42.7891 159.307 43.1849 159.391 43.5547C159.479 43.9245 159.612 44.25 159.789 44.5312C159.971 44.8125 160.203 45.0339 160.484 45.1953C160.766 45.3516 161.102 45.4297 161.492 45.4297C161.971 45.4297 162.367 45.3281 162.68 45.125C162.992 44.9219 163.24 44.6536 163.422 44.3203C163.609 43.987 163.755 43.625 163.859 43.2344V41.3516C163.802 41.0651 163.714 40.7891 163.594 40.5234C163.479 40.2526 163.328 40.013 163.141 39.8047C162.958 39.5911 162.732 39.4219 162.461 39.2969C162.19 39.1719 161.872 39.1094 161.508 39.1094C161.112 39.1094 160.771 39.1927 160.484 39.3594C160.203 39.5208 159.971 39.7448 159.789 40.0312C159.612 40.3125 159.479 40.6406 159.391 41.0156C159.307 41.3854 159.266 41.7812 159.266 42.2031ZM170.656 46.6562C170.068 46.6562 169.534 46.5573 169.055 46.3594C168.581 46.1562 168.172 45.8724 167.828 45.5078C167.49 45.1432 167.229 44.7109 167.047 44.2109C166.865 43.7109 166.773 43.1641 166.773 42.5703V42.2422C166.773 41.5547 166.875 40.9427 167.078 40.4062C167.281 39.8646 167.557 39.4062 167.906 39.0312C168.255 38.6562 168.651 38.3724 169.094 38.1797C169.536 37.987 169.995 37.8906 170.469 37.8906C171.073 37.8906 171.594 37.9948 172.031 38.2031C172.474 38.4115 172.836 38.7031 173.117 39.0781C173.398 39.4479 173.607 39.8854 173.742 40.3906C173.878 40.8906 173.945 41.4375 173.945 42.0312V42.6797H167.633V41.5H172.5V41.3906C172.479 41.0156 172.401 40.651 172.266 40.2969C172.135 39.9427 171.927 39.651 171.641 39.4219C171.354 39.1927 170.964 39.0781 170.469 39.0781C170.141 39.0781 169.839 39.1484 169.562 39.2891C169.286 39.4245 169.049 39.6276 168.852 39.8984C168.654 40.1693 168.5 40.5 168.391 40.8906C168.281 41.2812 168.227 41.7318 168.227 42.2422V42.5703C168.227 42.9714 168.281 43.349 168.391 43.7031C168.505 44.0521 168.669 44.3594 168.883 44.625C169.102 44.8906 169.365 45.099 169.672 45.25C169.984 45.401 170.339 45.4766 170.734 45.4766C171.245 45.4766 171.677 45.3724 172.031 45.1641C172.385 44.9557 172.695 44.6771 172.961 44.3281L173.836 45.0234C173.654 45.2995 173.422 45.5625 173.141 45.8125C172.859 46.0625 172.513 46.2656 172.102 46.4219C171.695 46.5781 171.214 46.6562 170.656 46.6562ZM177.078 39.8516V46.5H175.633V38.0469H177L177.078 39.8516ZM176.734 41.9531L176.133 41.9297C176.138 41.3516 176.224 40.8177 176.391 40.3281C176.557 39.8333 176.792 39.4036 177.094 39.0391C177.396 38.6745 177.755 38.3932 178.172 38.1953C178.594 37.9922 179.06 37.8906 179.57 37.8906C179.987 37.8906 180.362 37.9479 180.695 38.0625C181.029 38.1719 181.312 38.349 181.547 38.5938C181.786 38.8385 181.969 39.1562 182.094 39.5469C182.219 39.9323 182.281 40.4036 182.281 40.9609V46.5H180.828V40.9453C180.828 40.5026 180.763 40.1484 180.633 39.8828C180.503 39.612 180.312 39.4167 180.062 39.2969C179.812 39.1719 179.505 39.1094 179.141 39.1094C178.781 39.1094 178.453 39.1849 178.156 39.3359C177.865 39.487 177.612 39.6953 177.398 39.9609C177.19 40.2266 177.026 40.5312 176.906 40.875C176.792 41.2135 176.734 41.5729 176.734 41.9531ZM187.859 45.4688C188.203 45.4688 188.521 45.3984 188.812 45.2578C189.104 45.1172 189.344 44.9245 189.531 44.6797C189.719 44.4297 189.826 44.1458 189.852 43.8281H191.227C191.201 44.3281 191.031 44.7943 190.719 45.2266C190.411 45.6536 190.008 46 189.508 46.2656C189.008 46.526 188.458 46.6562 187.859 46.6562C187.224 46.6562 186.669 46.5443 186.195 46.3203C185.727 46.0964 185.336 45.7891 185.023 45.3984C184.716 45.0078 184.484 44.5599 184.328 44.0547C184.177 43.5443 184.102 43.0052 184.102 42.4375V42.1094C184.102 41.5417 184.177 41.0052 184.328 40.5C184.484 39.9896 184.716 39.5391 185.023 39.1484C185.336 38.7578 185.727 38.4505 186.195 38.2266C186.669 38.0026 187.224 37.8906 187.859 37.8906C188.521 37.8906 189.099 38.026 189.594 38.2969C190.089 38.5625 190.477 38.9271 190.758 39.3906C191.044 39.849 191.201 40.3698 191.227 40.9531H189.852C189.826 40.6042 189.727 40.2891 189.555 40.0078C189.388 39.7266 189.159 39.5026 188.867 39.3359C188.581 39.1641 188.245 39.0781 187.859 39.0781C187.417 39.0781 187.044 39.1667 186.742 39.3438C186.445 39.5156 186.208 39.75 186.031 40.0469C185.859 40.3385 185.734 40.6641 185.656 41.0234C185.583 41.3776 185.547 41.7396 185.547 42.1094V42.4375C185.547 42.8073 185.583 43.1719 185.656 43.5312C185.729 43.8906 185.852 44.2161 186.023 44.5078C186.201 44.7995 186.438 45.0339 186.734 45.2109C187.036 45.3828 187.411 45.4688 187.859 45.4688ZM195.227 45.625L197.578 38.0469H199.125L195.734 47.8047C195.656 48.013 195.552 48.237 195.422 48.4766C195.297 48.7214 195.135 48.9531 194.938 49.1719C194.74 49.3906 194.5 49.5677 194.219 49.7031C193.943 49.8438 193.612 49.9141 193.227 49.9141C193.112 49.9141 192.966 49.8984 192.789 49.8672C192.612 49.8359 192.487 49.8099 192.414 49.7891L192.406 48.6172C192.448 48.6224 192.513 48.6276 192.602 48.6328C192.695 48.6432 192.76 48.6484 192.797 48.6484C193.125 48.6484 193.404 48.6042 193.633 48.5156C193.862 48.4323 194.055 48.2891 194.211 48.0859C194.372 47.888 194.51 47.6146 194.625 47.2656L195.227 45.625ZM193.5 38.0469L195.695 44.6094L196.07 46.1328L195.031 46.6641L191.922 38.0469H193.5Z" fill="url(#paint0_linear_448_411)"/>
<path d="M212.391 40.2266V41.4141H204.562V40.2266H212.391ZM220.312 39.6719V49.75H218.859V38.0469H220.188L220.312 39.6719ZM226.008 42.2031V42.3672C226.008 42.9818 225.935 43.5521 225.789 44.0781C225.643 44.599 225.43 45.0521 225.148 45.4375C224.872 45.8229 224.531 46.1224 224.125 46.3359C223.719 46.5495 223.253 46.6562 222.727 46.6562C222.19 46.6562 221.716 46.5677 221.305 46.3906C220.893 46.2135 220.544 45.9557 220.258 45.6172C219.971 45.2786 219.742 44.8724 219.57 44.3984C219.404 43.9245 219.289 43.3906 219.227 42.7969V41.9219C219.289 41.2969 219.406 40.737 219.578 40.2422C219.75 39.7474 219.977 39.3255 220.258 38.9766C220.544 38.6224 220.891 38.3542 221.297 38.1719C221.703 37.9844 222.172 37.8906 222.703 37.8906C223.234 37.8906 223.706 37.9948 224.117 38.2031C224.529 38.4062 224.875 38.6979 225.156 39.0781C225.438 39.4583 225.648 39.9141 225.789 40.4453C225.935 40.9714 226.008 41.5573 226.008 42.2031ZM224.555 42.3672V42.2031C224.555 41.7812 224.51 41.3854 224.422 41.0156C224.333 40.6406 224.195 40.3125 224.008 40.0312C223.826 39.7448 223.591 39.5208 223.305 39.3594C223.018 39.1927 222.677 39.1094 222.281 39.1094C221.917 39.1094 221.599 39.1719 221.328 39.2969C221.062 39.4219 220.836 39.5911 220.648 39.8047C220.461 40.013 220.307 40.2526 220.188 40.5234C220.073 40.7891 219.987 41.0651 219.93 41.3516V43.375C220.034 43.7396 220.18 44.0833 220.367 44.4062C220.555 44.724 220.805 44.9818 221.117 45.1797C221.43 45.3724 221.823 45.4688 222.297 45.4688C222.688 45.4688 223.023 45.388 223.305 45.2266C223.591 45.0599 223.826 44.8333 224.008 44.5469C224.195 44.2604 224.333 43.9323 224.422 43.5625C224.51 43.1875 224.555 42.7891 224.555 42.3672ZM232.836 45.0547V40.7031C232.836 40.3698 232.768 40.0807 232.633 39.8359C232.503 39.5859 232.305 39.3932 232.039 39.2578C231.773 39.1224 231.445 39.0547 231.055 39.0547C230.69 39.0547 230.37 39.1172 230.094 39.2422C229.823 39.3672 229.609 39.5312 229.453 39.7344C229.302 39.9375 229.227 40.1562 229.227 40.3906H227.781C227.781 40.0885 227.859 39.7891 228.016 39.4922C228.172 39.1953 228.396 38.9271 228.688 38.6875C228.984 38.4427 229.339 38.25 229.75 38.1094C230.167 37.9635 230.63 37.8906 231.141 37.8906C231.755 37.8906 232.297 37.9948 232.766 38.2031C233.24 38.4115 233.609 38.7266 233.875 39.1484C234.146 39.5651 234.281 40.0885 234.281 40.7188V44.6562C234.281 44.9375 234.305 45.237 234.352 45.5547C234.404 45.8724 234.479 46.1458 234.578 46.375V46.5H233.07C232.997 46.3333 232.94 46.112 232.898 45.8359C232.857 45.5547 232.836 45.2943 232.836 45.0547ZM233.086 41.375L233.102 42.3906H231.641C231.229 42.3906 230.862 42.4245 230.539 42.4922C230.216 42.5547 229.945 42.651 229.727 42.7812C229.508 42.9115 229.341 43.0755 229.227 43.2734C229.112 43.4661 229.055 43.6927 229.055 43.9531C229.055 44.2188 229.115 44.4609 229.234 44.6797C229.354 44.8984 229.534 45.0729 229.773 45.2031C230.018 45.3281 230.318 45.3906 230.672 45.3906C231.115 45.3906 231.505 45.2969 231.844 45.1094C232.182 44.9219 232.451 44.6927 232.648 44.4219C232.852 44.151 232.961 43.888 232.977 43.6328L233.594 44.3281C233.557 44.5469 233.458 44.7891 233.297 45.0547C233.135 45.3203 232.919 45.5755 232.648 45.8203C232.383 46.0599 232.065 46.2604 231.695 46.4219C231.331 46.5781 230.919 46.6562 230.461 46.6562C229.888 46.6562 229.385 46.5443 228.953 46.3203C228.526 46.0964 228.193 45.7969 227.953 45.4219C227.719 45.0417 227.602 44.6172 227.602 44.1484C227.602 43.6953 227.69 43.2969 227.867 42.9531C228.044 42.6042 228.299 42.3151 228.633 42.0859C228.966 41.8516 229.367 41.6745 229.836 41.5547C230.305 41.4349 230.828 41.375 231.406 41.375H233.086ZM239.711 42.4609H238.156V41.5703H239.594C239.995 41.5703 240.312 41.5208 240.547 41.4219C240.781 41.3177 240.948 41.1745 241.047 40.9922C241.146 40.8099 241.195 40.5964 241.195 40.3516C241.195 40.1328 241.138 39.9271 241.023 39.7344C240.914 39.5365 240.737 39.3776 240.492 39.2578C240.247 39.1328 239.919 39.0703 239.508 39.0703C239.174 39.0703 238.872 39.1302 238.602 39.25C238.331 39.3646 238.115 39.5234 237.953 39.7266C237.797 39.9245 237.719 40.1484 237.719 40.3984H236.273C236.273 39.8828 236.419 39.4401 236.711 39.0703C237.008 38.6953 237.401 38.4062 237.891 38.2031C238.385 38 238.924 37.8984 239.508 37.8984C239.997 37.8984 240.435 37.9531 240.82 38.0625C241.211 38.1667 241.542 38.3229 241.812 38.5312C242.083 38.7344 242.289 38.9896 242.43 39.2969C242.576 39.599 242.648 39.9505 242.648 40.3516C242.648 40.638 242.581 40.9089 242.445 41.1641C242.31 41.4193 242.115 41.6458 241.859 41.8438C241.604 42.0365 241.294 42.1875 240.93 42.2969C240.57 42.4062 240.164 42.4609 239.711 42.4609ZM238.156 41.9141H239.711C240.216 41.9141 240.661 41.9635 241.047 42.0625C241.432 42.1562 241.755 42.2969 242.016 42.4844C242.276 42.6719 242.471 42.9036 242.602 43.1797C242.737 43.4505 242.805 43.763 242.805 44.1172C242.805 44.513 242.724 44.8698 242.562 45.1875C242.406 45.5 242.182 45.7656 241.891 45.9844C241.599 46.2031 241.25 46.3698 240.844 46.4844C240.443 46.599 239.997 46.6562 239.508 46.6562C238.961 46.6562 238.43 46.5625 237.914 46.375C237.398 46.1875 236.974 45.8984 236.641 45.5078C236.307 45.112 236.141 44.6094 236.141 44H237.586C237.586 44.2552 237.667 44.4974 237.828 44.7266C237.99 44.9557 238.214 45.1406 238.5 45.2812C238.792 45.4219 239.128 45.4922 239.508 45.4922C239.914 45.4922 240.253 45.4297 240.523 45.3047C240.794 45.1797 240.997 45.013 241.133 44.8047C241.273 44.5964 241.344 44.3698 241.344 44.125C241.344 43.8073 241.281 43.5521 241.156 43.3594C241.031 43.1667 240.839 43.026 240.578 42.9375C240.323 42.8438 239.995 42.7969 239.594 42.7969H238.156V41.9141ZM246.125 39.6719V49.75H244.672V38.0469H246L246.125 39.6719ZM251.82 42.2031V42.3672C251.82 42.9818 251.747 43.5521 251.602 44.0781C251.456 44.599 251.242 45.0521 250.961 45.4375C250.685 45.8229 250.344 46.1224 249.938 46.3359C249.531 46.5495 249.065 46.6562 248.539 46.6562C248.003 46.6562 247.529 46.5677 247.117 46.3906C246.706 46.2135 246.357 45.9557 246.07 45.6172C245.784 45.2786 245.555 44.8724 245.383 44.3984C245.216 43.9245 245.102 43.3906 245.039 42.7969V41.9219C245.102 41.2969 245.219 40.737 245.391 40.2422C245.562 39.7474 245.789 39.3255 246.07 38.9766C246.357 38.6224 246.703 38.3542 247.109 38.1719C247.516 37.9844 247.984 37.8906 248.516 37.8906C249.047 37.8906 249.518 37.9948 249.93 38.2031C250.341 38.4062 250.688 38.6979 250.969 39.0781C251.25 39.4583 251.461 39.9141 251.602 40.4453C251.747 40.9714 251.82 41.5573 251.82 42.2031ZM250.367 42.3672V42.2031C250.367 41.7812 250.323 41.3854 250.234 41.0156C250.146 40.6406 250.008 40.3125 249.82 40.0312C249.638 39.7448 249.404 39.5208 249.117 39.3594C248.831 39.1927 248.49 39.1094 248.094 39.1094C247.729 39.1094 247.411 39.1719 247.141 39.2969C246.875 39.4219 246.648 39.5911 246.461 39.8047C246.273 40.013 246.12 40.2526 246 40.5234C245.885 40.7891 245.799 41.0651 245.742 41.3516V43.375C245.846 43.7396 245.992 44.0833 246.18 44.4062C246.367 44.724 246.617 44.9818 246.93 45.1797C247.242 45.3724 247.635 45.4688 248.109 45.4688C248.5 45.4688 248.836 45.388 249.117 45.2266C249.404 45.0599 249.638 44.8333 249.82 44.5469C250.008 44.2604 250.146 43.9323 250.234 43.5625C250.323 43.1875 250.367 42.7891 250.367 42.3672ZM258.648 45.0547V40.7031C258.648 40.3698 258.581 40.0807 258.445 39.8359C258.315 39.5859 258.117 39.3932 257.852 39.2578C257.586 39.1224 257.258 39.0547 256.867 39.0547C256.503 39.0547 256.182 39.1172 255.906 39.2422C255.635 39.3672 255.422 39.5312 255.266 39.7344C255.115 39.9375 255.039 40.1562 255.039 40.3906H253.594C253.594 40.0885 253.672 39.7891 253.828 39.4922C253.984 39.1953 254.208 38.9271 254.5 38.6875C254.797 38.4427 255.151 38.25 255.562 38.1094C255.979 37.9635 256.443 37.8906 256.953 37.8906C257.568 37.8906 258.109 37.9948 258.578 38.2031C259.052 38.4115 259.422 38.7266 259.688 39.1484C259.958 39.5651 260.094 40.0885 260.094 40.7188V44.6562C260.094 44.9375 260.117 45.237 260.164 45.5547C260.216 45.8724 260.292 46.1458 260.391 46.375V46.5H258.883C258.81 46.3333 258.753 46.112 258.711 45.8359C258.669 45.5547 258.648 45.2943 258.648 45.0547ZM258.898 41.375L258.914 42.3906H257.453C257.042 42.3906 256.674 42.4245 256.352 42.4922C256.029 42.5547 255.758 42.651 255.539 42.7812C255.32 42.9115 255.154 43.0755 255.039 43.2734C254.924 43.4661 254.867 43.6927 254.867 43.9531C254.867 44.2188 254.927 44.4609 255.047 44.6797C255.167 44.8984 255.346 45.0729 255.586 45.2031C255.831 45.3281 256.13 45.3906 256.484 45.3906C256.927 45.3906 257.318 45.2969 257.656 45.1094C257.995 44.9219 258.263 44.6927 258.461 44.4219C258.664 44.151 258.773 43.888 258.789 43.6328L259.406 44.3281C259.37 44.5469 259.271 44.7891 259.109 45.0547C258.948 45.3203 258.732 45.5755 258.461 45.8203C258.195 46.0599 257.878 46.2604 257.508 46.4219C257.143 46.5781 256.732 46.6562 256.273 46.6562C255.701 46.6562 255.198 46.5443 254.766 46.3203C254.339 46.0964 254.005 45.7969 253.766 45.4219C253.531 45.0417 253.414 44.6172 253.414 44.1484C253.414 43.6953 253.503 43.2969 253.68 42.9531C253.857 42.6042 254.112 42.3151 254.445 42.0859C254.779 41.8516 255.18 41.6745 255.648 41.5547C256.117 41.4349 256.641 41.375 257.219 41.375H258.898ZM267.789 34.3672H268.977C268.977 34.8776 268.898 35.2839 268.742 35.5859C268.586 35.8828 268.372 36.112 268.102 36.2734C267.836 36.4349 267.534 36.5573 267.195 36.6406C266.862 36.724 266.516 36.8047 266.156 36.8828C265.708 36.9766 265.292 37.125 264.906 37.3281C264.526 37.526 264.198 37.8073 263.922 38.1719C263.651 38.5365 263.451 39.0104 263.32 39.5938C263.195 40.1771 263.161 40.8984 263.219 41.7578V42.4766H262.031V41.7578C262.031 40.7943 262.122 39.9531 262.305 39.2344C262.492 38.5156 262.755 37.9089 263.094 37.4141C263.432 36.9193 263.833 36.526 264.297 36.2344C264.766 35.9427 265.281 35.7422 265.844 35.6328C266.25 35.5547 266.599 35.4714 266.891 35.3828C267.182 35.2891 267.404 35.1641 267.555 35.0078C267.711 34.8516 267.789 34.638 267.789 34.3672ZM266.078 38.5312C266.63 38.5312 267.122 38.6276 267.555 38.8203C267.987 39.013 268.354 39.2812 268.656 39.625C268.958 39.9688 269.188 40.375 269.344 40.8438C269.505 41.3073 269.586 41.8125 269.586 42.3594V42.5312C269.586 43.1198 269.5 43.6667 269.328 44.1719C269.161 44.6719 268.914 45.1094 268.586 45.4844C268.263 45.8542 267.867 46.1432 267.398 46.3516C266.935 46.5599 266.406 46.6641 265.812 46.6641C265.219 46.6641 264.688 46.5599 264.219 46.3516C263.755 46.1432 263.359 45.8542 263.031 45.4844C262.703 45.1094 262.453 44.6719 262.281 44.1719C262.115 43.6667 262.031 43.1198 262.031 42.5312V42.3594C262.031 42.2292 262.055 42.1016 262.102 41.9766C262.148 41.8516 262.206 41.724 262.273 41.5938C262.346 41.4635 262.411 41.3255 262.469 41.1797C262.661 40.7109 262.924 40.276 263.258 39.875C263.596 39.474 264 39.151 264.469 38.9062C264.943 38.6562 265.479 38.5312 266.078 38.5312ZM265.797 39.7109C265.266 39.7109 264.828 39.8333 264.484 40.0781C264.146 40.3229 263.893 40.6484 263.727 41.0547C263.56 41.4557 263.477 41.8906 263.477 42.3594V42.5312C263.477 42.9271 263.523 43.3021 263.617 43.6562C263.711 44.0104 263.852 44.3255 264.039 44.6016C264.232 44.8724 264.474 45.0859 264.766 45.2422C265.062 45.3984 265.411 45.4766 265.812 45.4766C266.214 45.4766 266.56 45.3984 266.852 45.2422C267.143 45.0859 267.383 44.8724 267.57 44.6016C267.758 44.3255 267.898 44.0104 267.992 43.6562C268.086 43.3021 268.133 42.9271 268.133 42.5312V42.3594C268.133 42.0052 268.086 41.6693 267.992 41.3516C267.898 41.0339 267.755 40.7526 267.562 40.5078C267.375 40.263 267.133 40.0703 266.836 39.9297C266.544 39.7839 266.198 39.7109 265.797 39.7109ZM270.844 42.3672V42.1875C270.844 41.5781 270.932 41.013 271.109 40.4922C271.286 39.9661 271.542 39.5104 271.875 39.125C272.208 38.7344 272.612 38.4323 273.086 38.2188C273.56 38 274.091 37.8906 274.68 37.8906C275.273 37.8906 275.807 38 276.281 38.2188C276.76 38.4323 277.167 38.7344 277.5 39.125C277.839 39.5104 278.096 39.9661 278.273 40.4922C278.451 41.013 278.539 41.5781 278.539 42.1875V42.3672C278.539 42.9766 278.451 43.5417 278.273 44.0625C278.096 44.5833 277.839 45.0391 277.5 45.4297C277.167 45.8151 276.763 46.1172 276.289 46.3359C275.82 46.5495 275.289 46.6562 274.695 46.6562C274.102 46.6562 273.568 46.5495 273.094 46.3359C272.62 46.1172 272.214 45.8151 271.875 45.4297C271.542 45.0391 271.286 44.5833 271.109 44.0625C270.932 43.5417 270.844 42.9766 270.844 42.3672ZM272.289 42.1875V42.3672C272.289 42.7891 272.339 43.1875 272.438 43.5625C272.536 43.9323 272.685 44.2604 272.883 44.5469C273.086 44.8333 273.339 45.0599 273.641 45.2266C273.943 45.388 274.294 45.4688 274.695 45.4688C275.091 45.4688 275.438 45.388 275.734 45.2266C276.036 45.0599 276.286 44.8333 276.484 44.5469C276.682 44.2604 276.831 43.9323 276.93 43.5625C277.034 43.1875 277.086 42.7891 277.086 42.3672V42.1875C277.086 41.7708 277.034 41.3776 276.93 41.0078C276.831 40.6328 276.68 40.3021 276.477 40.0156C276.279 39.724 276.029 39.4948 275.727 39.3281C275.43 39.1615 275.081 39.0781 274.68 39.0781C274.284 39.0781 273.935 39.1615 273.633 39.3281C273.336 39.4948 273.086 39.724 272.883 40.0156C272.685 40.3021 272.536 40.6328 272.438 41.0078C272.339 41.3776 272.289 41.7708 272.289 42.1875ZM283.625 38.0469V46.5H282.172V38.0469H283.625ZM286.461 38.0469V39.2188H279.391V38.0469H286.461ZM289.453 38.0469V46.5H288.008V38.0469H289.453ZM295 38.0469L290.992 42.8906H288.969L288.75 41.625H290.406L293.242 38.0469H295ZM293.445 46.5L290.336 42.6719L291.266 41.625L295.281 46.5H293.445ZM301.523 45.0547V40.7031C301.523 40.3698 301.456 40.0807 301.32 39.8359C301.19 39.5859 300.992 39.3932 300.727 39.2578C300.461 39.1224 300.133 39.0547 299.742 39.0547C299.378 39.0547 299.057 39.1172 298.781 39.2422C298.51 39.3672 298.297 39.5312 298.141 39.7344C297.99 39.9375 297.914 40.1562 297.914 40.3906H296.469C296.469 40.0885 296.547 39.7891 296.703 39.4922C296.859 39.1953 297.083 38.9271 297.375 38.6875C297.672 38.4427 298.026 38.25 298.438 38.1094C298.854 37.9635 299.318 37.8906 299.828 37.8906C300.443 37.8906 300.984 37.9948 301.453 38.2031C301.927 38.4115 302.297 38.7266 302.562 39.1484C302.833 39.5651 302.969 40.0885 302.969 40.7188V44.6562C302.969 44.9375 302.992 45.237 303.039 45.5547C303.091 45.8724 303.167 46.1458 303.266 46.375V46.5H301.758C301.685 46.3333 301.628 46.112 301.586 45.8359C301.544 45.5547 301.523 45.2943 301.523 45.0547ZM301.773 41.375L301.789 42.3906H300.328C299.917 42.3906 299.549 42.4245 299.227 42.4922C298.904 42.5547 298.633 42.651 298.414 42.7812C298.195 42.9115 298.029 43.0755 297.914 43.2734C297.799 43.4661 297.742 43.6927 297.742 43.9531C297.742 44.2188 297.802 44.4609 297.922 44.6797C298.042 44.8984 298.221 45.0729 298.461 45.2031C298.706 45.3281 299.005 45.3906 299.359 45.3906C299.802 45.3906 300.193 45.2969 300.531 45.1094C300.87 44.9219 301.138 44.6927 301.336 44.4219C301.539 44.151 301.648 43.888 301.664 43.6328L302.281 44.3281C302.245 44.5469 302.146 44.7891 301.984 45.0547C301.823 45.3203 301.607 45.5755 301.336 45.8203C301.07 46.0599 300.753 46.2604 300.383 46.4219C300.018 46.5781 299.607 46.6562 299.148 46.6562C298.576 46.6562 298.073 46.5443 297.641 46.3203C297.214 46.0964 296.88 45.7969 296.641 45.4219C296.406 45.0417 296.289 44.6172 296.289 44.1484C296.289 43.6953 296.378 43.2969 296.555 42.9531C296.732 42.6042 296.987 42.3151 297.32 42.0859C297.654 41.8516 298.055 41.6745 298.523 41.5547C298.992 41.4349 299.516 41.375 300.094 41.375H301.773ZM313.18 42.7812H310.406L310.391 41.625H312.656C313.104 41.625 313.477 41.5807 313.773 41.4922C314.076 41.4036 314.302 41.2708 314.453 41.0938C314.604 40.9167 314.68 40.6979 314.68 40.4375C314.68 40.2344 314.635 40.0573 314.547 39.9062C314.464 39.75 314.336 39.6224 314.164 39.5234C313.992 39.4193 313.779 39.3438 313.523 39.2969C313.273 39.2448 312.979 39.2188 312.641 39.2188H310.789V46.5H309.344V38.0469H312.641C313.177 38.0469 313.659 38.0938 314.086 38.1875C314.518 38.2812 314.885 38.4245 315.188 38.6172C315.495 38.8047 315.729 39.0443 315.891 39.3359C316.052 39.6276 316.133 39.9714 316.133 40.3672C316.133 40.6224 316.081 40.8646 315.977 41.0938C315.872 41.3229 315.719 41.526 315.516 41.7031C315.312 41.8802 315.062 42.026 314.766 42.1406C314.469 42.25 314.128 42.3203 313.742 42.3516L313.18 42.7812ZM313.18 46.5H309.883L310.602 45.3281H313.18C313.581 45.3281 313.914 45.2786 314.18 45.1797C314.445 45.0755 314.643 44.9297 314.773 44.7422C314.909 44.5495 314.977 44.3203 314.977 44.0547C314.977 43.7891 314.909 43.5625 314.773 43.375C314.643 43.1823 314.445 43.0365 314.18 42.9375C313.914 42.8333 313.581 42.7812 313.18 42.7812H310.984L311 41.625H313.742L314.266 42.0625C314.729 42.099 315.122 42.2135 315.445 42.4062C315.768 42.599 316.013 42.8438 316.18 43.1406C316.346 43.4323 316.43 43.75 316.43 44.0938C316.43 44.4896 316.354 44.8385 316.203 45.1406C316.057 45.4427 315.844 45.6953 315.562 45.8984C315.281 46.0964 314.94 46.2474 314.539 46.3516C314.138 46.4505 313.685 46.5 313.18 46.5ZM319.555 40.9531H322.094C322.776 40.9531 323.352 41.0729 323.82 41.3125C324.289 41.5469 324.643 41.8724 324.883 42.2891C325.128 42.7005 325.25 43.1693 325.25 43.6953C325.25 44.0859 325.182 44.4531 325.047 44.7969C324.911 45.1354 324.708 45.4323 324.438 45.6875C324.172 45.9427 323.841 46.1432 323.445 46.2891C323.055 46.4297 322.604 46.5 322.094 46.5H318.5V38.0469H319.945V45.3125H322.094C322.51 45.3125 322.844 45.237 323.094 45.0859C323.344 44.9349 323.523 44.7396 323.633 44.5C323.742 44.2604 323.797 44.0104 323.797 43.75C323.797 43.4948 323.742 43.2448 323.633 43C323.523 42.7552 323.344 42.5521 323.094 42.3906C322.844 42.224 322.51 42.1406 322.094 42.1406H319.555V40.9531ZM328.258 38.0469V46.5H326.812V38.0469H328.258ZM334.172 45.4688C334.516 45.4688 334.833 45.3984 335.125 45.2578C335.417 45.1172 335.656 44.9245 335.844 44.6797C336.031 44.4297 336.138 44.1458 336.164 43.8281H337.539C337.513 44.3281 337.344 44.7943 337.031 45.2266C336.724 45.6536 336.32 46 335.82 46.2656C335.32 46.526 334.771 46.6562 334.172 46.6562C333.536 46.6562 332.982 46.5443 332.508 46.3203C332.039 46.0964 331.648 45.7891 331.336 45.3984C331.029 45.0078 330.797 44.5599 330.641 44.0547C330.49 43.5443 330.414 43.0052 330.414 42.4375V42.1094C330.414 41.5417 330.49 41.0052 330.641 40.5C330.797 39.9896 331.029 39.5391 331.336 39.1484C331.648 38.7578 332.039 38.4505 332.508 38.2266C332.982 38.0026 333.536 37.8906 334.172 37.8906C334.833 37.8906 335.411 38.026 335.906 38.2969C336.401 38.5625 336.789 38.9271 337.07 39.3906C337.357 39.849 337.513 40.3698 337.539 40.9531H336.164C336.138 40.6042 336.039 40.2891 335.867 40.0078C335.701 39.7266 335.471 39.5026 335.18 39.3359C334.893 39.1641 334.557 39.0781 334.172 39.0781C333.729 39.0781 333.357 39.1667 333.055 39.3438C332.758 39.5156 332.521 39.75 332.344 40.0469C332.172 40.3385 332.047 40.6641 331.969 41.0234C331.896 41.3776 331.859 41.7396 331.859 42.1094V42.4375C331.859 42.8073 331.896 43.1719 331.969 43.5312C332.042 43.8906 332.164 44.2161 332.336 44.5078C332.513 44.7995 332.75 45.0339 333.047 45.2109C333.349 45.3828 333.724 45.4688 334.172 45.4688ZM338.781 42.3672V42.1875C338.781 41.5781 338.87 41.013 339.047 40.4922C339.224 39.9661 339.479 39.5104 339.812 39.125C340.146 38.7344 340.549 38.4323 341.023 38.2188C341.497 38 342.029 37.8906 342.617 37.8906C343.211 37.8906 343.745 38 344.219 38.2188C344.698 38.4323 345.104 38.7344 345.438 39.125C345.776 39.5104 346.034 39.9661 346.211 40.4922C346.388 41.013 346.477 41.5781 346.477 42.1875V42.3672C346.477 42.9766 346.388 43.5417 346.211 44.0625C346.034 44.5833 345.776 45.0391 345.438 45.4297C345.104 45.8151 344.701 46.1172 344.227 46.3359C343.758 46.5495 343.227 46.6562 342.633 46.6562C342.039 46.6562 341.505 46.5495 341.031 46.3359C340.557 46.1172 340.151 45.8151 339.812 45.4297C339.479 45.0391 339.224 44.5833 339.047 44.0625C338.87 43.5417 338.781 42.9766 338.781 42.3672ZM340.227 42.1875V42.3672C340.227 42.7891 340.276 43.1875 340.375 43.5625C340.474 43.9323 340.622 44.2604 340.82 44.5469C341.023 44.8333 341.276 45.0599 341.578 45.2266C341.88 45.388 342.232 45.4688 342.633 45.4688C343.029 45.4688 343.375 45.388 343.672 45.2266C343.974 45.0599 344.224 44.8333 344.422 44.5469C344.62 44.2604 344.768 43.9323 344.867 43.5625C344.971 43.1875 345.023 42.7891 345.023 42.3672V42.1875C345.023 41.7708 344.971 41.3776 344.867 41.0078C344.768 40.6328 344.617 40.3021 344.414 40.0156C344.216 39.724 343.966 39.4948 343.664 39.3281C343.367 39.1615 343.018 39.0781 342.617 39.0781C342.221 39.0781 341.872 39.1615 341.57 39.3281C341.273 39.4948 341.023 39.724 340.82 40.0156C340.622 40.3021 340.474 40.6328 340.375 41.0078C340.276 41.3776 340.227 41.7708 340.227 42.1875ZM349.859 38.0469V46.5H348.414V38.0469H349.859ZM355.406 38.0469L351.398 42.8906H349.375L349.156 41.625H350.812L353.648 38.0469H355.406ZM353.852 46.5L350.742 42.6719L351.672 41.625L355.688 46.5H353.852ZM356.391 42.3672V42.1875C356.391 41.5781 356.479 41.013 356.656 40.4922C356.833 39.9661 357.089 39.5104 357.422 39.125C357.755 38.7344 358.159 38.4323 358.633 38.2188C359.107 38 359.638 37.8906 360.227 37.8906C360.82 37.8906 361.354 38 361.828 38.2188C362.307 38.4323 362.714 38.7344 363.047 39.125C363.385 39.5104 363.643 39.9661 363.82 40.4922C363.997 41.013 364.086 41.5781 364.086 42.1875V42.3672C364.086 42.9766 363.997 43.5417 363.82 44.0625C363.643 44.5833 363.385 45.0391 363.047 45.4297C362.714 45.8151 362.31 46.1172 361.836 46.3359C361.367 46.5495 360.836 46.6562 360.242 46.6562C359.648 46.6562 359.115 46.5495 358.641 46.3359C358.167 46.1172 357.76 45.8151 357.422 45.4297C357.089 45.0391 356.833 44.5833 356.656 44.0625C356.479 43.5417 356.391 42.9766 356.391 42.3672ZM357.836 42.1875V42.3672C357.836 42.7891 357.885 43.1875 357.984 43.5625C358.083 43.9323 358.232 44.2604 358.43 44.5469C358.633 44.8333 358.885 45.0599 359.188 45.2266C359.49 45.388 359.841 45.4688 360.242 45.4688C360.638 45.4688 360.984 45.388 361.281 45.2266C361.583 45.0599 361.833 44.8333 362.031 44.5469C362.229 44.2604 362.378 43.9323 362.477 43.5625C362.581 43.1875 362.633 42.7891 362.633 42.3672V42.1875C362.633 41.7708 362.581 41.3776 362.477 41.0078C362.378 40.6328 362.227 40.3021 362.023 40.0156C361.826 39.724 361.576 39.4948 361.273 39.3281C360.977 39.1615 360.628 39.0781 360.227 39.0781C359.831 39.0781 359.482 39.1615 359.18 39.3281C358.883 39.4948 358.633 39.724 358.43 40.0156C358.232 40.3021 358.083 40.6328 357.984 41.0078C357.885 41.3776 357.836 41.7708 357.836 42.1875ZM371.438 38.0469V46.5H369.992V38.0469H371.438ZM376.984 38.0469L372.977 42.8906H370.953L370.734 41.625H372.391L375.227 38.0469H376.984ZM375.43 46.5L372.32 42.6719L373.25 41.625L377.266 46.5H375.43ZM377.969 42.3672V42.1875C377.969 41.5781 378.057 41.013 378.234 40.4922C378.411 39.9661 378.667 39.5104 379 39.125C379.333 38.7344 379.737 38.4323 380.211 38.2188C380.685 38 381.216 37.8906 381.805 37.8906C382.398 37.8906 382.932 38 383.406 38.2188C383.885 38.4323 384.292 38.7344 384.625 39.125C384.964 39.5104 385.221 39.9661 385.398 40.4922C385.576 41.013 385.664 41.5781 385.664 42.1875V42.3672C385.664 42.9766 385.576 43.5417 385.398 44.0625C385.221 44.5833 384.964 45.0391 384.625 45.4297C384.292 45.8151 383.888 46.1172 383.414 46.3359C382.945 46.5495 382.414 46.6562 381.82 46.6562C381.227 46.6562 380.693 46.5495 380.219 46.3359C379.745 46.1172 379.339 45.8151 379 45.4297C378.667 45.0391 378.411 44.5833 378.234 44.0625C378.057 43.5417 377.969 42.9766 377.969 42.3672ZM379.414 42.1875V42.3672C379.414 42.7891 379.464 43.1875 379.562 43.5625C379.661 43.9323 379.81 44.2604 380.008 44.5469C380.211 44.8333 380.464 45.0599 380.766 45.2266C381.068 45.388 381.419 45.4688 381.82 45.4688C382.216 45.4688 382.562 45.388 382.859 45.2266C383.161 45.0599 383.411 44.8333 383.609 44.5469C383.807 44.2604 383.956 43.9323 384.055 43.5625C384.159 43.1875 384.211 42.7891 384.211 42.3672V42.1875C384.211 41.7708 384.159 41.3776 384.055 41.0078C383.956 40.6328 383.805 40.3021 383.602 40.0156C383.404 39.724 383.154 39.4948 382.852 39.3281C382.555 39.1615 382.206 39.0781 381.805 39.0781C381.409 39.0781 381.06 39.1615 380.758 39.3281C380.461 39.4948 380.211 39.724 380.008 40.0156C379.81 40.3021 379.661 40.6328 379.562 41.0078C379.464 41.3776 379.414 41.7708 379.414 42.1875ZM393.211 41.7109V42.8828H388.742V41.7109H393.211ZM389.047 38.0469V46.5H387.602V38.0469H389.047ZM394.383 38.0469V46.5H392.93V38.0469H394.383ZM400.68 42.7812H397.906L397.891 41.625H400.156C400.604 41.625 400.977 41.5807 401.273 41.4922C401.576 41.4036 401.802 41.2708 401.953 41.0938C402.104 40.9167 402.18 40.6979 402.18 40.4375C402.18 40.2344 402.135 40.0573 402.047 39.9062C401.964 39.75 401.836 39.6224 401.664 39.5234C401.492 39.4193 401.279 39.3438 401.023 39.2969C400.773 39.2448 400.479 39.2188 400.141 39.2188H398.289V46.5H396.844V38.0469H400.141C400.677 38.0469 401.159 38.0938 401.586 38.1875C402.018 38.2812 402.385 38.4245 402.688 38.6172C402.995 38.8047 403.229 39.0443 403.391 39.3359C403.552 39.6276 403.633 39.9714 403.633 40.3672C403.633 40.6224 403.581 40.8646 403.477 41.0938C403.372 41.3229 403.219 41.526 403.016 41.7031C402.812 41.8802 402.562 42.026 402.266 42.1406C401.969 42.25 401.628 42.3203 401.242 42.3516L400.68 42.7812ZM400.68 46.5H397.383L398.102 45.3281H400.68C401.081 45.3281 401.414 45.2786 401.68 45.1797C401.945 45.0755 402.143 44.9297 402.273 44.7422C402.409 44.5495 402.477 44.3203 402.477 44.0547C402.477 43.7891 402.409 43.5625 402.273 43.375C402.143 43.1823 401.945 43.0365 401.68 42.9375C401.414 42.8333 401.081 42.7812 400.68 42.7812H398.484L398.5 41.625H401.242L401.766 42.0625C402.229 42.099 402.622 42.2135 402.945 42.4062C403.268 42.599 403.513 42.8438 403.68 43.1406C403.846 43.4323 403.93 43.75 403.93 44.0938C403.93 44.4896 403.854 44.8385 403.703 45.1406C403.557 45.4427 403.344 45.6953 403.062 45.8984C402.781 46.0964 402.44 46.2474 402.039 46.3516C401.638 46.4505 401.185 46.5 400.68 46.5ZM409.375 46.6562C408.786 46.6562 408.253 46.5573 407.773 46.3594C407.299 46.1562 406.891 45.8724 406.547 45.5078C406.208 45.1432 405.948 44.7109 405.766 44.2109C405.583 43.7109 405.492 43.1641 405.492 42.5703V42.2422C405.492 41.5547 405.594 40.9427 405.797 40.4062C406 39.8646 406.276 39.4062 406.625 39.0312C406.974 38.6562 407.37 38.3724 407.812 38.1797C408.255 37.987 408.714 37.8906 409.188 37.8906C409.792 37.8906 410.312 37.9948 410.75 38.2031C411.193 38.4115 411.555 38.7031 411.836 39.0781C412.117 39.4479 412.326 39.8854 412.461 40.3906C412.596 40.8906 412.664 41.4375 412.664 42.0312V42.6797H406.352V41.5H411.219V41.3906C411.198 41.0156 411.12 40.651 410.984 40.2969C410.854 39.9427 410.646 39.651 410.359 39.4219C410.073 39.1927 409.682 39.0781 409.188 39.0781C408.859 39.0781 408.557 39.1484 408.281 39.2891C408.005 39.4245 407.768 39.6276 407.57 39.8984C407.372 40.1693 407.219 40.5 407.109 40.8906C407 41.2812 406.945 41.7318 406.945 42.2422V42.5703C406.945 42.9714 407 43.349 407.109 43.7031C407.224 44.0521 407.388 44.3594 407.602 44.625C407.82 44.8906 408.083 45.099 408.391 45.25C408.703 45.401 409.057 45.4766 409.453 45.4766C409.964 45.4766 410.396 45.3724 410.75 45.1641C411.104 44.9557 411.414 44.6771 411.68 44.3281L412.555 45.0234C412.372 45.2995 412.141 45.5625 411.859 45.8125C411.578 46.0625 411.232 46.2656 410.82 46.4219C410.414 46.5781 409.932 46.6562 409.375 46.6562ZM415.797 39.6719V49.75H414.344V38.0469H415.672L415.797 39.6719ZM421.492 42.2031V42.3672C421.492 42.9818 421.419 43.5521 421.273 44.0781C421.128 44.599 420.914 45.0521 420.633 45.4375C420.357 45.8229 420.016 46.1224 419.609 46.3359C419.203 46.5495 418.737 46.6562 418.211 46.6562C417.674 46.6562 417.201 46.5677 416.789 46.3906C416.378 46.2135 416.029 45.9557 415.742 45.6172C415.456 45.2786 415.227 44.8724 415.055 44.3984C414.888 43.9245 414.773 43.3906 414.711 42.7969V41.9219C414.773 41.2969 414.891 40.737 415.062 40.2422C415.234 39.7474 415.461 39.3255 415.742 38.9766C416.029 38.6224 416.375 38.3542 416.781 38.1719C417.188 37.9844 417.656 37.8906 418.188 37.8906C418.719 37.8906 419.19 37.9948 419.602 38.2031C420.013 38.4062 420.359 38.6979 420.641 39.0781C420.922 39.4583 421.133 39.9141 421.273 40.4453C421.419 40.9714 421.492 41.5573 421.492 42.2031ZM420.039 42.3672V42.2031C420.039 41.7812 419.995 41.3854 419.906 41.0156C419.818 40.6406 419.68 40.3125 419.492 40.0312C419.31 39.7448 419.076 39.5208 418.789 39.3594C418.503 39.1927 418.161 39.1094 417.766 39.1094C417.401 39.1094 417.083 39.1719 416.812 39.2969C416.547 39.4219 416.32 39.5911 416.133 39.8047C415.945 40.013 415.792 40.2526 415.672 40.5234C415.557 40.7891 415.471 41.0651 415.414 41.3516V43.375C415.518 43.7396 415.664 44.0833 415.852 44.4062C416.039 44.724 416.289 44.9818 416.602 45.1797C416.914 45.3724 417.307 45.4688 417.781 45.4688C418.172 45.4688 418.508 45.388 418.789 45.2266C419.076 45.0599 419.31 44.8333 419.492 44.5469C419.68 44.2604 419.818 43.9323 419.906 43.5625C419.995 43.1875 420.039 42.7891 420.039 42.3672ZM426.719 45.4688C427.062 45.4688 427.38 45.3984 427.672 45.2578C427.964 45.1172 428.203 44.9245 428.391 44.6797C428.578 44.4297 428.685 44.1458 428.711 43.8281H430.086C430.06 44.3281 429.891 44.7943 429.578 45.2266C429.271 45.6536 428.867 46 428.367 46.2656C427.867 46.526 427.318 46.6562 426.719 46.6562C426.083 46.6562 425.529 46.5443 425.055 46.3203C424.586 46.0964 424.195 45.7891 423.883 45.3984C423.576 45.0078 423.344 44.5599 423.188 44.0547C423.036 43.5443 422.961 43.0052 422.961 42.4375V42.1094C422.961 41.5417 423.036 41.0052 423.188 40.5C423.344 39.9896 423.576 39.5391 423.883 39.1484C424.195 38.7578 424.586 38.4505 425.055 38.2266C425.529 38.0026 426.083 37.8906 426.719 37.8906C427.38 37.8906 427.958 38.026 428.453 38.2969C428.948 38.5625 429.336 38.9271 429.617 39.3906C429.904 39.849 430.06 40.3698 430.086 40.9531H428.711C428.685 40.6042 428.586 40.2891 428.414 40.0078C428.247 39.7266 428.018 39.5026 427.727 39.3359C427.44 39.1641 427.104 39.0781 426.719 39.0781C426.276 39.0781 425.904 39.1667 425.602 39.3438C425.305 39.5156 425.068 39.75 424.891 40.0469C424.719 40.3385 424.594 40.6641 424.516 41.0234C424.443 41.3776 424.406 41.7396 424.406 42.1094V42.4375C424.406 42.8073 424.443 43.1719 424.516 43.5312C424.589 43.8906 424.711 44.2161 424.883 44.5078C425.06 44.7995 425.297 45.0339 425.594 45.2109C425.896 45.3828 426.271 45.4688 426.719 45.4688ZM433.273 44.2109L437.172 38.0469H438.625V46.5H437.172V40.3359L433.273 46.5H431.836V38.0469H433.273V44.2109ZM440.562 42.3672V42.1875C440.562 41.5781 440.651 41.013 440.828 40.4922C441.005 39.9661 441.26 39.5104 441.594 39.125C441.927 38.7344 442.331 38.4323 442.805 38.2188C443.279 38 443.81 37.8906 444.398 37.8906C444.992 37.8906 445.526 38 446 38.2188C446.479 38.4323 446.885 38.7344 447.219 39.125C447.557 39.5104 447.815 39.9661 447.992 40.4922C448.169 41.013 448.258 41.5781 448.258 42.1875V42.3672C448.258 42.9766 448.169 43.5417 447.992 44.0625C447.815 44.5833 447.557 45.0391 447.219 45.4297C446.885 45.8151 446.482 46.1172 446.008 46.3359C445.539 46.5495 445.008 46.6562 444.414 46.6562C443.82 46.6562 443.286 46.5495 442.812 46.3359C442.339 46.1172 441.932 45.8151 441.594 45.4297C441.26 45.0391 441.005 44.5833 440.828 44.0625C440.651 43.5417 440.562 42.9766 440.562 42.3672ZM442.008 42.1875V42.3672C442.008 42.7891 442.057 43.1875 442.156 43.5625C442.255 43.9323 442.404 44.2604 442.602 44.5469C442.805 44.8333 443.057 45.0599 443.359 45.2266C443.661 45.388 444.013 45.4688 444.414 45.4688C444.81 45.4688 445.156 45.388 445.453 45.2266C445.755 45.0599 446.005 44.8333 446.203 44.5469C446.401 44.2604 446.549 43.9323 446.648 43.5625C446.753 43.1875 446.805 42.7891 446.805 42.3672V42.1875C446.805 41.7708 446.753 41.3776 446.648 41.0078C446.549 40.6328 446.398 40.3021 446.195 40.0156C445.997 39.724 445.747 39.4948 445.445 39.3281C445.148 39.1615 444.799 39.0781 444.398 39.0781C444.003 39.0781 443.654 39.1615 443.352 39.3281C443.055 39.4948 442.805 39.724 442.602 40.0156C442.404 40.3021 442.255 40.6328 442.156 41.0078C442.057 41.3776 442.008 41.7708 442.008 42.1875ZM455.805 41.7109V42.8828H451.336V41.7109H455.805ZM451.641 38.0469V46.5H450.195V38.0469H451.641ZM456.977 38.0469V46.5H455.523V38.0469H456.977ZM465.039 41.7109V42.8828H460.57V41.7109H465.039ZM460.875 38.0469V46.5H459.43V38.0469H460.875ZM466.211 38.0469V46.5H464.758V38.0469H466.211ZM469.727 40.9531H472.266C472.948 40.9531 473.523 41.0729 473.992 41.3125C474.461 41.5469 474.815 41.8724 475.055 42.2891C475.299 42.7005 475.422 43.1693 475.422 43.6953C475.422 44.0859 475.354 44.4531 475.219 44.7969C475.083 45.1354 474.88 45.4323 474.609 45.6875C474.344 45.9427 474.013 46.1432 473.617 46.2891C473.227 46.4297 472.776 46.5 472.266 46.5H468.672V38.0469H470.117V45.3125H472.266C472.682 45.3125 473.016 45.237 473.266 45.0859C473.516 44.9349 473.695 44.7396 473.805 44.5C473.914 44.2604 473.969 44.0104 473.969 43.75C473.969 43.4948 473.914 43.2448 473.805 43C473.695 42.7552 473.516 42.5521 473.266 42.3906C473.016 42.224 472.682 42.1406 472.266 42.1406H469.727V40.9531ZM478.43 38.0469V46.5H476.984V38.0469H478.43ZM481.938 38.0469L483.789 41.125L485.664 38.0469H487.359L484.594 42.2188L487.445 46.5H485.773L483.82 43.3281L481.867 46.5H480.188L483.031 42.2188L480.273 38.0469H481.938ZM496.25 45.4688C496.594 45.4688 496.911 45.3984 497.203 45.2578C497.495 45.1172 497.734 44.9245 497.922 44.6797C498.109 44.4297 498.216 44.1458 498.242 43.8281H499.617C499.591 44.3281 499.422 44.7943 499.109 45.2266C498.802 45.6536 498.398 46 497.898 46.2656C497.398 46.526 496.849 46.6562 496.25 46.6562C495.615 46.6562 495.06 46.5443 494.586 46.3203C494.117 46.0964 493.727 45.7891 493.414 45.3984C493.107 45.0078 492.875 44.5599 492.719 44.0547C492.568 43.5443 492.492 43.0052 492.492 42.4375V42.1094C492.492 41.5417 492.568 41.0052 492.719 40.5C492.875 39.9896 493.107 39.5391 493.414 39.1484C493.727 38.7578 494.117 38.4505 494.586 38.2266C495.06 38.0026 495.615 37.8906 496.25 37.8906C496.911 37.8906 497.49 38.026 497.984 38.2969C498.479 38.5625 498.867 38.9271 499.148 39.3906C499.435 39.849 499.591 40.3698 499.617 40.9531H498.242C498.216 40.6042 498.117 40.2891 497.945 40.0078C497.779 39.7266 497.549 39.5026 497.258 39.3359C496.971 39.1641 496.635 39.0781 496.25 39.0781C495.807 39.0781 495.435 39.1667 495.133 39.3438C494.836 39.5156 494.599 39.75 494.422 40.0469C494.25 40.3385 494.125 40.6641 494.047 41.0234C493.974 41.3776 493.938 41.7396 493.938 42.1094V42.4375C493.938 42.8073 493.974 43.1719 494.047 43.5312C494.12 43.8906 494.242 44.2161 494.414 44.5078C494.591 44.7995 494.828 45.0339 495.125 45.2109C495.427 45.3828 495.802 45.4688 496.25 45.4688ZM506.227 45.0547V40.7031C506.227 40.3698 506.159 40.0807 506.023 39.8359C505.893 39.5859 505.695 39.3932 505.43 39.2578C505.164 39.1224 504.836 39.0547 504.445 39.0547C504.081 39.0547 503.76 39.1172 503.484 39.2422C503.214 39.3672 503 39.5312 502.844 39.7344C502.693 39.9375 502.617 40.1562 502.617 40.3906H501.172C501.172 40.0885 501.25 39.7891 501.406 39.4922C501.562 39.1953 501.786 38.9271 502.078 38.6875C502.375 38.4427 502.729 38.25 503.141 38.1094C503.557 37.9635 504.021 37.8906 504.531 37.8906C505.146 37.8906 505.688 37.9948 506.156 38.2031C506.63 38.4115 507 38.7266 507.266 39.1484C507.536 39.5651 507.672 40.0885 507.672 40.7188V44.6562C507.672 44.9375 507.695 45.237 507.742 45.5547C507.794 45.8724 507.87 46.1458 507.969 46.375V46.5H506.461C506.388 46.3333 506.331 46.112 506.289 45.8359C506.247 45.5547 506.227 45.2943 506.227 45.0547ZM506.477 41.375L506.492 42.3906H505.031C504.62 42.3906 504.253 42.4245 503.93 42.4922C503.607 42.5547 503.336 42.651 503.117 42.7812C502.898 42.9115 502.732 43.0755 502.617 43.2734C502.503 43.4661 502.445 43.6927 502.445 43.9531C502.445 44.2188 502.505 44.4609 502.625 44.6797C502.745 44.8984 502.924 45.0729 503.164 45.2031C503.409 45.3281 503.708 45.3906 504.062 45.3906C504.505 45.3906 504.896 45.2969 505.234 45.1094C505.573 44.9219 505.841 44.6927 506.039 44.4219C506.242 44.151 506.352 43.888 506.367 43.6328L506.984 44.3281C506.948 44.5469 506.849 44.7891 506.688 45.0547C506.526 45.3203 506.31 45.5755 506.039 45.8203C505.773 46.0599 505.456 46.2604 505.086 46.4219C504.721 46.5781 504.31 46.6562 503.852 46.6562C503.279 46.6562 502.776 46.5443 502.344 46.3203C501.917 46.0964 501.583 45.7969 501.344 45.4219C501.109 45.0417 500.992 44.6172 500.992 44.1484C500.992 43.6953 501.081 43.2969 501.258 42.9531C501.435 42.6042 501.69 42.3151 502.023 42.0859C502.357 41.8516 502.758 41.6745 503.227 41.5547C503.695 41.4349 504.219 41.375 504.797 41.375H506.477ZM511.508 44.2109L515.406 38.0469H516.859V46.5H515.406V40.3359L511.508 46.5H510.07V38.0469H511.508V44.2109ZM514.617 34.9844H515.789C515.789 35.3906 515.695 35.7526 515.508 36.0703C515.32 36.3828 515.052 36.6276 514.703 36.8047C514.354 36.9818 513.94 37.0703 513.461 37.0703C512.737 37.0703 512.164 36.8776 511.742 36.4922C511.326 36.1016 511.117 35.599 511.117 34.9844H512.289C512.289 35.2917 512.378 35.5625 512.555 35.7969C512.732 36.0312 513.034 36.1484 513.461 36.1484C513.878 36.1484 514.174 36.0312 514.352 35.7969C514.529 35.5625 514.617 35.2917 514.617 34.9844ZM522.625 38.0469V46.5H521.172V38.0469H522.625ZM525.461 38.0469V39.2188H518.391V38.0469H525.461ZM526.172 42.3672V42.1875C526.172 41.5781 526.26 41.013 526.438 40.4922C526.615 39.9661 526.87 39.5104 527.203 39.125C527.536 38.7344 527.94 38.4323 528.414 38.2188C528.888 38 529.419 37.8906 530.008 37.8906C530.602 37.8906 531.135 38 531.609 38.2188C532.089 38.4323 532.495 38.7344 532.828 39.125C533.167 39.5104 533.424 39.9661 533.602 40.4922C533.779 41.013 533.867 41.5781 533.867 42.1875V42.3672C533.867 42.9766 533.779 43.5417 533.602 44.0625C533.424 44.5833 533.167 45.0391 532.828 45.4297C532.495 45.8151 532.091 46.1172 531.617 46.3359C531.148 46.5495 530.617 46.6562 530.023 46.6562C529.43 46.6562 528.896 46.5495 528.422 46.3359C527.948 46.1172 527.542 45.8151 527.203 45.4297C526.87 45.0391 526.615 44.5833 526.438 44.0625C526.26 43.5417 526.172 42.9766 526.172 42.3672ZM527.617 42.1875V42.3672C527.617 42.7891 527.667 43.1875 527.766 43.5625C527.865 43.9323 528.013 44.2604 528.211 44.5469C528.414 44.8333 528.667 45.0599 528.969 45.2266C529.271 45.388 529.622 45.4688 530.023 45.4688C530.419 45.4688 530.766 45.388 531.062 45.2266C531.365 45.0599 531.615 44.8333 531.812 44.5469C532.01 44.2604 532.159 43.9323 532.258 43.5625C532.362 43.1875 532.414 42.7891 532.414 42.3672V42.1875C532.414 41.7708 532.362 41.3776 532.258 41.0078C532.159 40.6328 532.008 40.3021 531.805 40.0156C531.607 39.724 531.357 39.4948 531.055 39.3281C530.758 39.1615 530.409 39.0781 530.008 39.0781C529.612 39.0781 529.263 39.1615 528.961 39.3281C528.664 39.4948 528.414 39.724 528.211 40.0156C528.013 40.3021 527.865 40.6328 527.766 41.0078C527.667 41.3776 527.617 41.7708 527.617 42.1875ZM539.648 42.7812H536.875L536.859 41.625H539.125C539.573 41.625 539.945 41.5807 540.242 41.4922C540.544 41.4036 540.771 41.2708 540.922 41.0938C541.073 40.9167 541.148 40.6979 541.148 40.4375C541.148 40.2344 541.104 40.0573 541.016 39.9062C540.932 39.75 540.805 39.6224 540.633 39.5234C540.461 39.4193 540.247 39.3438 539.992 39.2969C539.742 39.2448 539.448 39.2188 539.109 39.2188H537.258V46.5H535.812V38.0469H539.109C539.646 38.0469 540.128 38.0938 540.555 38.1875C540.987 38.2812 541.354 38.4245 541.656 38.6172C541.964 38.8047 542.198 39.0443 542.359 39.3359C542.521 39.6276 542.602 39.9714 542.602 40.3672C542.602 40.6224 542.549 40.8646 542.445 41.0938C542.341 41.3229 542.188 41.526 541.984 41.7031C541.781 41.8802 541.531 42.026 541.234 42.1406C540.938 42.25 540.596 42.3203 540.211 42.3516L539.648 42.7812ZM539.648 46.5H536.352L537.07 45.3281H539.648C540.049 45.3281 540.383 45.2786 540.648 45.1797C540.914 45.0755 541.112 44.9297 541.242 44.7422C541.378 44.5495 541.445 44.3203 541.445 44.0547C541.445 43.7891 541.378 43.5625 541.242 43.375C541.112 43.1823 540.914 43.0365 540.648 42.9375C540.383 42.8333 540.049 42.7812 539.648 42.7812H537.453L537.469 41.625H540.211L540.734 42.0625C541.198 42.099 541.591 42.2135 541.914 42.4062C542.237 42.599 542.482 42.8438 542.648 43.1406C542.815 43.4323 542.898 43.75 542.898 44.0938C542.898 44.4896 542.823 44.8385 542.672 45.1406C542.526 45.4427 542.312 45.6953 542.031 45.8984C541.75 46.0964 541.409 46.2474 541.008 46.3516C540.607 46.4505 540.154 46.5 539.648 46.5Z" fill="#6E7C7C"/>
<defs>
<filter id="filter0_f_448_411" x="0" y="0" width="69" height="82" filterUnits="userSpaceOnUse" color-interpolation-filters="sRGB">
<feFlood flood-opacity="0" result="BackgroundImageFix"/>
<feBlend mode="normal" in="SourceGraphic" in2="BackgroundImageFix" result="shape"/>
<feGaussianBlur stdDeviation="10" result="effect1_foregroundBlur_448_411"/>
</filter>
<linearGradient id="paint0_linear_448_411" x1="4.47654" y1="23.3214" x2="181.343" y2="116.301" gradientUnits="userSpaceOnUse">
<stop stop-color="#1C5771"/>
<stop offset="0.809039" stop-color="#4A90AE"/>
</linearGradient>
</defs>
</svg>
