<svg width="65" height="65" viewBox="0 0 65 65" fill="none" xmlns="http://www.w3.org/2000/svg">
<circle cx="32.8" cy="32.5" r="32" fill="#FFFDE3"/>
<circle cx="32.8" cy="32.5" r="24.25" fill="white" stroke="#498837" stroke-width="1.5"/>
<circle cx="48.8" cy="50.5" r="5" fill="#9ECB5D"/>
<path d="M42.2756 37.2089L39.4787 34.4119C38.4798 33.413 36.7816 33.8126 36.3821 35.1112C36.0824 36.0102 35.0835 36.5097 34.1845 36.3099C32.1867 35.8104 29.4896 33.2133 28.9902 31.1156C28.6905 30.2165 29.2898 29.2176 30.1889 28.918C31.4874 28.5184 31.887 26.8203 30.8881 25.8214L28.0912 23.0244C27.292 22.3252 26.0933 22.3252 25.3941 23.0244L23.4962 24.9223C21.5983 26.9202 23.696 32.2143 28.3908 36.9092C33.0857 41.604 38.3799 43.8017 40.3777 41.8038L42.2756 39.9059C42.9749 39.1068 42.9749 37.9081 42.2756 37.2089Z" fill="#498837"/>
</svg>
