<svg width="20" height="20" viewBox="0 0 20 20" fill="none" xmlns="http://www.w3.org/2000/svg">
<path d="M1 5C1 3.11438 1 2.17157 1.58579 1.58579C2.17157 1 3.11438 1 5 1H15C16.8856 1 17.8284 1 18.4142 1.58579C19 2.17157 19 3.11438 19 5V15C19 16.8856 19 17.8284 18.4142 18.4142C17.8284 19 16.8856 19 15 19H5C3.11438 19 2.17157 19 1.58579 18.4142C1 17.8284 1 16.8856 1 15V5Z" stroke="#474344" stroke-width="2"/>
<path fill-rule="evenodd" clip-rule="evenodd" d="M16 8H10.6569C9.83935 8 9.4306 8 9.06306 7.84776C8.69552 7.69552 8.40649 7.40649 7.82843 6.82843L7.82843 6.82843L7.17157 6.17157C6.59351 5.59351 6.30448 5.30448 5.93694 5.15224C5.5694 5 5.16065 5 4.34315 5H1V15C1 16.8856 1 17.8284 1.58579 18.4142C2.17157 19 3.11438 19 5 19H15C16.8856 19 17.8284 19 18.4142 18.4142C19 17.8284 19 16.8856 19 15V5C19 5.93188 19 6.39782 18.8478 6.76537C18.6448 7.25542 18.2554 7.64477 17.7654 7.84776C17.3978 8 16.9319 8 16 8ZM5 13C4.44772 13 4 13.4477 4 14C4 14.5523 4.44772 15 5 15H13C13.5523 15 14 14.5523 14 14C14 13.4477 13.5523 13 13 13H5Z" fill="#474344"/>
</svg>
