<svg width="31" height="30" viewBox="0 0 31 30" fill="none" xmlns="http://www.w3.org/2000/svg">
<circle cx="15.582" cy="15" r="15" fill="white"/>
<path fill-rule="evenodd" clip-rule="evenodd" d="M28.082 15C28.082 21.9031 22.4852 27.5 15.582 27.5C8.67891 27.5 3.08203 21.9031 3.08203 15C3.08203 8.09688 8.67891 2.5 15.582 2.5C22.4852 2.5 28.082 8.09688 28.082 15ZM16.0299 11.7281C14.8143 12.2333 12.3841 13.2802 8.74036 14.8677C8.1487 15.1031 7.83828 15.3333 7.81016 15.5583C7.76224 15.9396 8.23932 16.0896 8.88724 16.2927C8.97578 16.3208 9.06745 16.349 9.1612 16.3802C9.79974 16.5875 10.6581 16.8302 11.1039 16.8396C11.5091 16.8479 11.9612 16.6812 12.4602 16.3396C15.8643 14.0406 17.6216 12.8792 17.732 12.8542C17.8102 12.8365 17.9185 12.8135 17.9914 12.8792C18.0643 12.9437 18.057 13.0667 18.0497 13.1C18.0018 13.301 16.1331 15.0396 15.1643 15.9396C14.8622 16.2198 14.6487 16.4187 14.6049 16.4646C14.507 16.5656 14.407 16.6625 14.3112 16.7552C13.7174 17.326 13.2737 17.7552 14.3362 18.4552C14.8466 18.7917 15.2549 19.0698 15.6622 19.3469C16.107 19.65 16.5508 19.9521 17.1258 20.3292C17.2716 20.425 17.4112 20.524 17.5477 20.6208C18.0654 20.9906 18.531 21.3219 19.106 21.2698C19.4393 21.2385 19.7852 20.925 19.9602 19.9885C20.3737 17.774 21.1883 12.9781 21.3768 11.001C21.3883 10.8369 21.3813 10.672 21.356 10.5094C21.3408 10.3781 21.2769 10.2572 21.1768 10.1708C21.0279 10.049 20.7966 10.0229 20.6924 10.025C20.2227 10.0333 19.5018 10.2844 16.0299 11.7281Z" fill="#0088CC"/>
</svg>
