<svg width="234" height="93" viewBox="0 0 234 93" fill="none" xmlns="http://www.w3.org/2000/svg">
<path d="M230 68C231.105 68 232 67.1046 232 66C232 64.8954 231.105 64 230 64V68ZM65.8441 33.8895C66.7972 34.4478 68.0224 34.1278 68.5807 33.1747C69.139 32.2216 68.8189 30.9964 67.8658 30.4381L65.8441 33.8895ZM1.97824 35.8324C1.0287 36.3967 0.716393 37.6239 1.28069 38.5735C1.845 39.523 3.07221 39.8353 4.02176 39.271L1.97824 35.8324ZM21.1325 26.7759L22.1542 28.4952L22.1544 28.4951L21.1325 26.7759ZM38.7533 16.3015L39.7753 18.0207L38.7533 16.3015ZM230 64H11.9824V68H230V64ZM12.9824 65V33.2414H8.98242V65H12.9824ZM37.7314 14.5823L20.1105 25.0567L22.1544 28.4951L39.7753 18.0207L37.7314 14.5823ZM20.1107 25.0566L1.97824 35.8324L4.02176 39.271L22.1542 28.4952L20.1107 25.0566ZM67.8658 30.4381L54.0686 22.3562L52.0469 25.8076L65.8441 33.8895L67.8658 30.4381ZM54.0686 22.3562L40.7806 14.5725L38.7588 18.024L52.0469 25.8076L54.0686 22.3562ZM39.7753 18.0207C39.4623 18.2067 39.073 18.208 38.7588 18.024L40.7806 14.5725C39.8382 14.0205 38.6702 14.0242 37.7314 14.5823L39.7753 18.0207ZM11.9824 64C12.5347 64 12.9824 64.4477 12.9824 65H8.98242C8.98242 66.6568 10.3256 68 11.9824 68V64Z" fill="url(#paint0_linear_75_423)"/>
<path d="M25.0508 46.2129L21.1836 58H18.0684L23.3516 43.7812H25.334L25.0508 46.2129ZM28.2637 58L24.3867 46.2129L24.0742 43.7812H26.0762L31.3887 58H28.2637ZM28.0879 52.707V55.002H20.5781V52.707H28.0879ZM32.707 43.7812H38.0098C39.097 43.7812 40.0312 43.944 40.8125 44.2695C41.6003 44.5951 42.2057 45.0768 42.6289 45.7148C43.0521 46.3529 43.2637 47.1374 43.2637 48.0684C43.2637 48.8301 43.1335 49.4844 42.873 50.0312C42.6191 50.5716 42.2578 51.0241 41.7891 51.3887C41.3268 51.7467 40.7832 52.0332 40.1582 52.248L39.2305 52.7363H34.6211L34.6016 50.4512H38.0293C38.5436 50.4512 38.9701 50.36 39.3086 50.1777C39.6471 49.9954 39.901 49.7415 40.0703 49.416C40.2461 49.0905 40.334 48.7129 40.334 48.2832C40.334 47.8275 40.2493 47.4336 40.0801 47.1016C39.9108 46.7695 39.6536 46.5156 39.3086 46.3398C38.9635 46.1641 38.5306 46.0762 38.0098 46.0762H35.6367V58H32.707V43.7812ZM40.6562 58L37.4141 51.6621L40.5098 51.6426L43.791 57.8633V58H40.6562ZM57.1992 50.5586V51.2324C57.1992 52.3132 57.0527 53.2832 56.7598 54.1426C56.4668 55.002 56.0534 55.7344 55.5195 56.3398C54.9857 56.9388 54.3477 57.3978 53.6055 57.7168C52.8698 58.0358 52.0527 58.1953 51.1543 58.1953C50.2624 58.1953 49.4453 58.0358 48.7031 57.7168C47.9674 57.3978 47.3294 56.9388 46.7891 56.3398C46.2487 55.7344 45.8288 55.002 45.5293 54.1426C45.2363 53.2832 45.0898 52.3132 45.0898 51.2324V50.5586C45.0898 49.4714 45.2363 48.5013 45.5293 47.6484C45.8223 46.7891 46.2357 46.0566 46.7695 45.4512C47.3099 44.8457 47.9479 44.3835 48.6836 44.0645C49.4258 43.7454 50.2428 43.5859 51.1348 43.5859C52.0332 43.5859 52.8503 43.7454 53.5859 44.0645C54.3281 44.3835 54.9661 44.8457 55.5 45.4512C56.0404 46.0566 56.457 46.7891 56.75 47.6484C57.0495 48.5013 57.1992 49.4714 57.1992 50.5586ZM54.2402 51.2324V50.5391C54.2402 49.7839 54.1719 49.1198 54.0352 48.5469C53.8984 47.974 53.6966 47.4922 53.4297 47.1016C53.1628 46.7109 52.8372 46.418 52.4531 46.2227C52.069 46.0208 51.6296 45.9199 51.1348 45.9199C50.64 45.9199 50.2005 46.0208 49.8164 46.2227C49.4388 46.418 49.1165 46.7109 48.8496 47.1016C48.5892 47.4922 48.3906 47.974 48.2539 48.5469C48.1172 49.1198 48.0488 49.7839 48.0488 50.5391V51.2324C48.0488 51.9811 48.1172 52.6452 48.2539 53.2246C48.3906 53.7975 48.5924 54.2826 48.8594 54.6797C49.1263 55.0703 49.4518 55.3665 49.8359 55.5684C50.2201 55.7702 50.6595 55.8711 51.1543 55.8711C51.6491 55.8711 52.0885 55.7702 52.4727 55.5684C52.8568 55.3665 53.179 55.0703 53.4395 54.6797C53.6999 54.2826 53.8984 53.7975 54.0352 53.2246C54.1719 52.6452 54.2402 51.9811 54.2402 51.2324ZM60.6465 43.7812H63.127L66.7793 54.2207L70.4316 43.7812H72.9121L67.7754 58H65.7832L60.6465 43.7812ZM59.3086 43.7812H61.7793L62.2285 53.957V58H59.3086V43.7812ZM71.7793 43.7812H74.2598V58H71.3301V53.957L71.7793 43.7812ZM82.7852 46.2129L78.918 58H75.8027L81.0859 43.7812H83.0684L82.7852 46.2129ZM85.998 58L82.1211 46.2129L81.8086 43.7812H83.8105L89.123 58H85.998ZM85.8223 52.707V55.002H78.3125V52.707H85.8223ZM95.8125 50.793V53H90.2949V50.793H95.8125ZM105.734 54.2793C105.734 54.0254 105.695 53.7975 105.617 53.5957C105.546 53.3874 105.409 53.1986 105.207 53.0293C105.005 52.8535 104.722 52.681 104.357 52.5117C103.993 52.3424 103.521 52.1667 102.941 51.9844C102.297 51.776 101.685 51.5417 101.105 51.2812C100.533 51.0208 100.025 50.7181 99.582 50.373C99.1458 50.0215 98.8008 49.6146 98.5469 49.1523C98.2995 48.6901 98.1758 48.153 98.1758 47.541C98.1758 46.9486 98.306 46.4115 98.5664 45.9297C98.8268 45.4414 99.1914 45.0247 99.6602 44.6797C100.129 44.3281 100.682 44.0579 101.32 43.8691C101.965 43.6803 102.671 43.5859 103.439 43.5859C104.488 43.5859 105.402 43.7747 106.184 44.1523C106.965 44.5299 107.57 45.0475 108 45.7051C108.436 46.3626 108.654 47.1146 108.654 47.9609H105.744C105.744 47.5443 105.656 47.1797 105.48 46.8672C105.311 46.5482 105.051 46.2975 104.699 46.1152C104.354 45.9329 103.918 45.8418 103.391 45.8418C102.883 45.8418 102.46 45.9199 102.121 46.0762C101.783 46.2259 101.529 46.431 101.359 46.6914C101.19 46.9453 101.105 47.2318 101.105 47.5508C101.105 47.7917 101.164 48.0098 101.281 48.2051C101.405 48.4004 101.587 48.5827 101.828 48.752C102.069 48.9212 102.365 49.0807 102.717 49.2305C103.068 49.3802 103.475 49.5267 103.938 49.6699C104.712 49.9043 105.393 50.168 105.979 50.4609C106.571 50.7539 107.066 51.0827 107.463 51.4473C107.86 51.8118 108.16 52.2253 108.361 52.6875C108.563 53.1497 108.664 53.6738 108.664 54.2598C108.664 54.8783 108.544 55.4316 108.303 55.9199C108.062 56.4082 107.714 56.8216 107.258 57.1602C106.802 57.4987 106.258 57.7559 105.627 57.9316C104.995 58.1074 104.289 58.1953 103.508 58.1953C102.805 58.1953 102.111 58.1042 101.428 57.9219C100.744 57.7331 100.122 57.4499 99.5625 57.0723C99.0091 56.6947 98.5664 56.2129 98.2344 55.627C97.9023 55.041 97.7363 54.3477 97.7363 53.5469H100.676C100.676 53.9896 100.744 54.3639 100.881 54.6699C101.018 54.9759 101.21 55.2233 101.457 55.4121C101.711 55.6009 102.01 55.7376 102.355 55.8223C102.707 55.9069 103.091 55.9492 103.508 55.9492C104.016 55.9492 104.432 55.8776 104.758 55.7344C105.09 55.5911 105.334 55.3926 105.49 55.1387C105.653 54.8848 105.734 54.5983 105.734 54.2793ZM117.014 43.7812V58H114.094V43.7812H117.014ZM121.389 43.7812V46.0762H109.787V43.7812H121.389ZM123.059 43.7812H128.361C129.449 43.7812 130.383 43.944 131.164 44.2695C131.952 44.5951 132.557 45.0768 132.98 45.7148C133.404 46.3529 133.615 47.1374 133.615 48.0684C133.615 48.8301 133.485 49.4844 133.225 50.0312C132.971 50.5716 132.609 51.0241 132.141 51.3887C131.678 51.7467 131.135 52.0332 130.51 52.248L129.582 52.7363H124.973L124.953 50.4512H128.381C128.895 50.4512 129.322 50.36 129.66 50.1777C129.999 49.9954 130.253 49.7415 130.422 49.416C130.598 49.0905 130.686 48.7129 130.686 48.2832C130.686 47.8275 130.601 47.4336 130.432 47.1016C130.262 46.7695 130.005 46.5156 129.66 46.3398C129.315 46.1641 128.882 46.0762 128.361 46.0762H125.988V58H123.059V43.7812ZM131.008 58L127.766 51.6621L130.861 51.6426L134.143 57.8633V58H131.008ZM147.551 50.5586V51.2324C147.551 52.3132 147.404 53.2832 147.111 54.1426C146.818 55.002 146.405 55.7344 145.871 56.3398C145.337 56.9388 144.699 57.3978 143.957 57.7168C143.221 58.0358 142.404 58.1953 141.506 58.1953C140.614 58.1953 139.797 58.0358 139.055 57.7168C138.319 57.3978 137.681 56.9388 137.141 56.3398C136.6 55.7344 136.18 55.002 135.881 54.1426C135.588 53.2832 135.441 52.3132 135.441 51.2324V50.5586C135.441 49.4714 135.588 48.5013 135.881 47.6484C136.174 46.7891 136.587 46.0566 137.121 45.4512C137.661 44.8457 138.299 44.3835 139.035 44.0645C139.777 43.7454 140.594 43.5859 141.486 43.5859C142.385 43.5859 143.202 43.7454 143.938 44.0645C144.68 44.3835 145.318 44.8457 145.852 45.4512C146.392 46.0566 146.809 46.7891 147.102 47.6484C147.401 48.5013 147.551 49.4714 147.551 50.5586ZM144.592 51.2324V50.5391C144.592 49.7839 144.523 49.1198 144.387 48.5469C144.25 47.974 144.048 47.4922 143.781 47.1016C143.514 46.7109 143.189 46.418 142.805 46.2227C142.421 46.0208 141.981 45.9199 141.486 45.9199C140.992 45.9199 140.552 46.0208 140.168 46.2227C139.79 46.418 139.468 46.7109 139.201 47.1016C138.941 47.4922 138.742 47.974 138.605 48.5469C138.469 49.1198 138.4 49.7839 138.4 50.5391V51.2324C138.4 51.9811 138.469 52.6452 138.605 53.2246C138.742 53.7975 138.944 54.2826 139.211 54.6797C139.478 55.0703 139.803 55.3665 140.188 55.5684C140.572 55.7702 141.011 55.8711 141.506 55.8711C142.001 55.8711 142.44 55.7702 142.824 55.5684C143.208 55.3665 143.531 55.0703 143.791 54.6797C144.051 54.2826 144.25 53.7975 144.387 53.2246C144.523 52.6452 144.592 51.9811 144.592 51.2324ZM151.184 43.7812L154.152 50.2656L157.121 43.7812H160.314L155.637 52.8242V58H152.668V52.8242L147.98 43.7812H151.184ZM177.863 50.5684V56.2031C177.642 56.4701 177.3 56.7598 176.838 57.0723C176.376 57.3783 175.78 57.6419 175.051 57.8633C174.322 58.0846 173.439 58.1953 172.404 58.1953C171.486 58.1953 170.65 58.0456 169.895 57.7461C169.139 57.4401 168.488 56.9941 167.941 56.4082C167.401 55.8223 166.984 55.1061 166.691 54.2598C166.398 53.4069 166.252 52.4336 166.252 51.3398V50.4512C166.252 49.3574 166.392 48.3841 166.672 47.5312C166.958 46.6784 167.365 45.959 167.893 45.373C168.42 44.7871 169.048 44.3411 169.777 44.0352C170.507 43.7292 171.317 43.5762 172.209 43.5762C173.446 43.5762 174.462 43.778 175.256 44.1816C176.05 44.5788 176.656 45.1322 177.072 45.8418C177.495 46.5449 177.756 47.3522 177.854 48.2637H175.012C174.94 47.7819 174.803 47.362 174.602 47.0039C174.4 46.6458 174.11 46.3659 173.732 46.1641C173.361 45.9622 172.88 45.8613 172.287 45.8613C171.799 45.8613 171.363 45.9622 170.979 46.1641C170.601 46.3594 170.282 46.6491 170.021 47.0332C169.761 47.4173 169.562 47.8926 169.426 48.459C169.289 49.0254 169.221 49.6829 169.221 50.4316V51.3398C169.221 52.082 169.292 52.7396 169.436 53.3125C169.579 53.8789 169.79 54.3574 170.07 54.748C170.357 55.1322 170.708 55.4219 171.125 55.6172C171.542 55.8125 172.027 55.9102 172.58 55.9102C173.042 55.9102 173.426 55.8711 173.732 55.793C174.045 55.7148 174.296 55.6204 174.484 55.5098C174.68 55.3926 174.829 55.2819 174.934 55.1777V52.6582H172.258V50.5684H177.863ZM180.227 43.7812H185.529C186.617 43.7812 187.551 43.944 188.332 44.2695C189.12 44.5951 189.725 45.0768 190.148 45.7148C190.572 46.3529 190.783 47.1374 190.783 48.0684C190.783 48.8301 190.653 49.4844 190.393 50.0312C190.139 50.5716 189.777 51.0241 189.309 51.3887C188.846 51.7467 188.303 52.0332 187.678 52.248L186.75 52.7363H182.141L182.121 50.4512H185.549C186.063 50.4512 186.49 50.36 186.828 50.1777C187.167 49.9954 187.421 49.7415 187.59 49.416C187.766 49.0905 187.854 48.7129 187.854 48.2832C187.854 47.8275 187.769 47.4336 187.6 47.1016C187.43 46.7695 187.173 46.5156 186.828 46.3398C186.483 46.1641 186.05 46.0762 185.529 46.0762H183.156V58H180.227V43.7812ZM188.176 58L184.934 51.6621L188.029 51.6426L191.311 57.8633V58H188.176ZM204.719 50.5586V51.2324C204.719 52.3132 204.572 53.2832 204.279 54.1426C203.986 55.002 203.573 55.7344 203.039 56.3398C202.505 56.9388 201.867 57.3978 201.125 57.7168C200.389 58.0358 199.572 58.1953 198.674 58.1953C197.782 58.1953 196.965 58.0358 196.223 57.7168C195.487 57.3978 194.849 56.9388 194.309 56.3398C193.768 55.7344 193.348 55.002 193.049 54.1426C192.756 53.2832 192.609 52.3132 192.609 51.2324V50.5586C192.609 49.4714 192.756 48.5013 193.049 47.6484C193.342 46.7891 193.755 46.0566 194.289 45.4512C194.829 44.8457 195.467 44.3835 196.203 44.0645C196.945 43.7454 197.762 43.5859 198.654 43.5859C199.553 43.5859 200.37 43.7454 201.105 44.0645C201.848 44.3835 202.486 44.8457 203.02 45.4512C203.56 46.0566 203.977 46.7891 204.27 47.6484C204.569 48.5013 204.719 49.4714 204.719 50.5586ZM201.76 51.2324V50.5391C201.76 49.7839 201.691 49.1198 201.555 48.5469C201.418 47.974 201.216 47.4922 200.949 47.1016C200.682 46.7109 200.357 46.418 199.973 46.2227C199.589 46.0208 199.149 45.9199 198.654 45.9199C198.16 45.9199 197.72 46.0208 197.336 46.2227C196.958 46.418 196.636 46.7109 196.369 47.1016C196.109 47.4922 195.91 47.974 195.773 48.5469C195.637 49.1198 195.568 49.7839 195.568 50.5391V51.2324C195.568 51.9811 195.637 52.6452 195.773 53.2246C195.91 53.7975 196.112 54.2826 196.379 54.6797C196.646 55.0703 196.971 55.3665 197.355 55.5684C197.74 55.7702 198.179 55.8711 198.674 55.8711C199.169 55.8711 199.608 55.7702 199.992 55.5684C200.376 55.3665 200.699 55.0703 200.959 54.6797C201.219 54.2826 201.418 53.7975 201.555 53.2246C201.691 52.6452 201.76 51.9811 201.76 51.2324ZM214.68 43.7812H217.6V53.1758C217.6 54.2695 217.365 55.1908 216.896 55.9395C216.434 56.6882 215.793 57.2513 214.973 57.6289C214.159 58.0065 213.221 58.1953 212.16 58.1953C211.099 58.1953 210.155 58.0065 209.328 57.6289C208.508 57.2513 207.863 56.6882 207.395 55.9395C206.932 55.1908 206.701 54.2695 206.701 53.1758V43.7812H209.631V53.1758C209.631 53.8138 209.732 54.3346 209.934 54.7383C210.135 55.1419 210.425 55.4382 210.803 55.627C211.187 55.8158 211.639 55.9102 212.16 55.9102C212.694 55.9102 213.146 55.8158 213.518 55.627C213.895 55.4382 214.182 55.1419 214.377 54.7383C214.579 54.3346 214.68 53.8138 214.68 53.1758V43.7812ZM225.549 52.9316H221.926V50.6465H225.549C226.109 50.6465 226.564 50.5553 226.916 50.373C227.268 50.1842 227.525 49.9238 227.688 49.5918C227.85 49.2598 227.932 48.8854 227.932 48.4688C227.932 48.0456 227.85 47.6517 227.688 47.2871C227.525 46.9225 227.268 46.6296 226.916 46.4082C226.564 46.1868 226.109 46.0762 225.549 46.0762H222.941V58H220.012V43.7812H225.549C226.662 43.7812 227.616 43.9831 228.41 44.3867C229.211 44.7839 229.823 45.334 230.246 46.0371C230.669 46.7402 230.881 47.5443 230.881 48.4492C230.881 49.3672 230.669 50.1615 230.246 50.832C229.823 51.5026 229.211 52.0202 228.41 52.3848C227.616 52.7493 226.662 52.9316 225.549 52.9316Z" fill="url(#paint1_linear_75_423)"/>
<path d="M20.0781 82.9531V83.6719C20.0781 84.526 19.9714 85.2917 19.7578 85.9688C19.5443 86.6458 19.237 87.2214 18.8359 87.6953C18.4349 88.1693 17.9531 88.5312 17.3906 88.7812C16.8333 89.0312 16.2083 89.1562 15.5156 89.1562C14.8438 89.1562 14.2266 89.0312 13.6641 88.7812C13.1068 88.5312 12.6224 88.1693 12.2109 87.6953C11.8047 87.2214 11.4896 86.6458 11.2656 85.9688C11.0417 85.2917 10.9297 84.526 10.9297 83.6719V82.9531C10.9297 82.099 11.0391 81.3359 11.2578 80.6641C11.4818 79.987 11.7969 79.4115 12.2031 78.9375C12.6094 78.4583 13.0911 78.0938 13.6484 77.8438C14.2109 77.5938 14.8281 77.4688 15.5 77.4688C16.1927 77.4688 16.8177 77.5938 17.375 77.8438C17.9375 78.0938 18.4193 78.4583 18.8203 78.9375C19.2266 79.4115 19.5365 79.987 19.75 80.6641C19.9688 81.3359 20.0781 82.099 20.0781 82.9531ZM18.5859 83.6719V82.9375C18.5859 82.2604 18.5156 81.6615 18.375 81.1406C18.2396 80.6198 18.0391 80.1823 17.7734 79.8281C17.5078 79.474 17.1823 79.2057 16.7969 79.0234C16.4167 78.8411 15.9844 78.75 15.5 78.75C15.0312 78.75 14.6068 78.8411 14.2266 79.0234C13.8516 79.2057 13.5286 79.474 13.2578 79.8281C12.9922 80.1823 12.7865 80.6198 12.6406 81.1406C12.4948 81.6615 12.4219 82.2604 12.4219 82.9375V83.6719C12.4219 84.3542 12.4948 84.9583 12.6406 85.4844C12.7865 86.0052 12.9948 86.4453 13.2656 86.8047C13.5417 87.1589 13.8672 87.4271 14.2422 87.6094C14.6224 87.7917 15.0469 87.8828 15.5156 87.8828C16.0052 87.8828 16.4401 87.7917 16.8203 87.6094C17.2005 87.4271 17.5208 87.1589 17.7812 86.8047C18.0469 86.4453 18.2474 86.0052 18.3828 85.4844C18.5182 84.9583 18.5859 84.3542 18.5859 83.6719ZM27.5391 76.8672H28.7266C28.7266 77.3776 28.6484 77.7839 28.4922 78.0859C28.3359 78.3828 28.1224 78.612 27.8516 78.7734C27.5859 78.9349 27.2839 79.0573 26.9453 79.1406C26.612 79.224 26.2656 79.3047 25.9062 79.3828C25.4583 79.4766 25.0417 79.625 24.6562 79.8281C24.276 80.026 23.9479 80.3073 23.6719 80.6719C23.401 81.0365 23.2005 81.5104 23.0703 82.0938C22.9453 82.6771 22.9115 83.3984 22.9688 84.2578V84.9766H21.7812V84.2578C21.7812 83.2943 21.8724 82.4531 22.0547 81.7344C22.2422 81.0156 22.5052 80.4089 22.8438 79.9141C23.1823 79.4193 23.5833 79.026 24.0469 78.7344C24.5156 78.4427 25.0312 78.2422 25.5938 78.1328C26 78.0547 26.349 77.9714 26.6406 77.8828C26.9323 77.7891 27.1536 77.6641 27.3047 77.5078C27.4609 77.3516 27.5391 77.138 27.5391 76.8672ZM25.8281 81.0312C26.3802 81.0312 26.8724 81.1276 27.3047 81.3203C27.737 81.513 28.1042 81.7812 28.4062 82.125C28.7083 82.4688 28.9375 82.875 29.0938 83.3438C29.2552 83.8073 29.3359 84.3125 29.3359 84.8594V85.0312C29.3359 85.6198 29.25 86.1667 29.0781 86.6719C28.9115 87.1719 28.6641 87.6094 28.3359 87.9844C28.013 88.3542 27.6172 88.6432 27.1484 88.8516C26.6849 89.0599 26.1562 89.1641 25.5625 89.1641C24.9688 89.1641 24.4375 89.0599 23.9688 88.8516C23.5052 88.6432 23.1094 88.3542 22.7812 87.9844C22.4531 87.6094 22.2031 87.1719 22.0312 86.6719C21.8646 86.1667 21.7812 85.6198 21.7812 85.0312V84.8594C21.7812 84.7292 21.8047 84.6016 21.8516 84.4766C21.8984 84.3516 21.9557 84.224 22.0234 84.0938C22.0964 83.9635 22.1615 83.8255 22.2188 83.6797C22.4115 83.2109 22.6745 82.776 23.0078 82.375C23.3464 81.974 23.75 81.651 24.2188 81.4062C24.6927 81.1562 25.2292 81.0312 25.8281 81.0312ZM25.5469 82.2109C25.0156 82.2109 24.5781 82.3333 24.2344 82.5781C23.8958 82.8229 23.6432 83.1484 23.4766 83.5547C23.3099 83.9557 23.2266 84.3906 23.2266 84.8594V85.0312C23.2266 85.4271 23.2734 85.8021 23.3672 86.1562C23.4609 86.5104 23.6016 86.8255 23.7891 87.1016C23.9818 87.3724 24.224 87.5859 24.5156 87.7422C24.8125 87.8984 25.1615 87.9766 25.5625 87.9766C25.9635 87.9766 26.3099 87.8984 26.6016 87.7422C26.8932 87.5859 27.1328 87.3724 27.3203 87.1016C27.5078 86.8255 27.6484 86.5104 27.7422 86.1562C27.8359 85.8021 27.8828 85.4271 27.8828 85.0312V84.8594C27.8828 84.5052 27.8359 84.1693 27.7422 83.8516C27.6484 83.5339 27.5052 83.2526 27.3125 83.0078C27.125 82.763 26.8828 82.5703 26.5859 82.4297C26.2943 82.2839 25.9479 82.2109 25.5469 82.2109ZM42.5859 87.8125L42.4453 91.5078H41.1562V89H40.0547V87.8125H42.5859ZM30.875 80.5469H32.3203V87.8125H35.4141V80.5469H36.8672V87.8125H39.9531V80.5469H41.3984V89H30.875V80.5469ZM47.6875 89.1562C47.099 89.1562 46.5651 89.0573 46.0859 88.8594C45.612 88.6562 45.2031 88.3724 44.8594 88.0078C44.5208 87.6432 44.2604 87.2109 44.0781 86.7109C43.8958 86.2109 43.8047 85.6641 43.8047 85.0703V84.7422C43.8047 84.0547 43.9062 83.4427 44.1094 82.9062C44.3125 82.3646 44.5885 81.9062 44.9375 81.5312C45.2865 81.1562 45.6823 80.8724 46.125 80.6797C46.5677 80.487 47.026 80.3906 47.5 80.3906C48.1042 80.3906 48.625 80.4948 49.0625 80.7031C49.5052 80.9115 49.8672 81.2031 50.1484 81.5781C50.4297 81.9479 50.638 82.3854 50.7734 82.8906C50.9089 83.3906 50.9766 83.9375 50.9766 84.5312V85.1797H44.6641V84H49.5312V83.8906C49.5104 83.5156 49.4323 83.151 49.2969 82.7969C49.1667 82.4427 48.9583 82.151 48.6719 81.9219C48.3854 81.6927 47.9948 81.5781 47.5 81.5781C47.1719 81.5781 46.8698 81.6484 46.5938 81.7891C46.3177 81.9245 46.0807 82.1276 45.8828 82.3984C45.6849 82.6693 45.5312 83 45.4219 83.3906C45.3125 83.7812 45.2578 84.2318 45.2578 84.7422V85.0703C45.2578 85.4714 45.3125 85.849 45.4219 86.2031C45.5365 86.5521 45.7005 86.8594 45.9141 87.125C46.1328 87.3906 46.3958 87.599 46.7031 87.75C47.0156 87.901 47.3698 87.9766 47.7656 87.9766C48.276 87.9766 48.7083 87.8724 49.0625 87.6641C49.4167 87.4557 49.7266 87.1771 49.9922 86.8281L50.8672 87.5234C50.6849 87.7995 50.4531 88.0625 50.1719 88.3125C49.8906 88.5625 49.5443 88.7656 49.1328 88.9219C48.7266 89.0781 48.2448 89.1562 47.6875 89.1562ZM56.0469 87.9688C56.3906 87.9688 56.7083 87.8984 57 87.7578C57.2917 87.6172 57.5312 87.4245 57.7188 87.1797C57.9062 86.9297 58.013 86.6458 58.0391 86.3281H59.4141C59.388 86.8281 59.2188 87.2943 58.9062 87.7266C58.599 88.1536 58.1953 88.5 57.6953 88.7656C57.1953 89.026 56.6458 89.1562 56.0469 89.1562C55.4115 89.1562 54.8568 89.0443 54.3828 88.8203C53.9141 88.5964 53.5234 88.2891 53.2109 87.8984C52.9036 87.5078 52.6719 87.0599 52.5156 86.5547C52.3646 86.0443 52.2891 85.5052 52.2891 84.9375V84.6094C52.2891 84.0417 52.3646 83.5052 52.5156 83C52.6719 82.4896 52.9036 82.0391 53.2109 81.6484C53.5234 81.2578 53.9141 80.9505 54.3828 80.7266C54.8568 80.5026 55.4115 80.3906 56.0469 80.3906C56.7083 80.3906 57.2865 80.526 57.7812 80.7969C58.276 81.0625 58.6641 81.4271 58.9453 81.8906C59.2318 82.349 59.388 82.8698 59.4141 83.4531H58.0391C58.013 83.1042 57.9141 82.7891 57.7422 82.5078C57.5755 82.2266 57.3464 82.0026 57.0547 81.8359C56.7682 81.6641 56.4323 81.5781 56.0469 81.5781C55.6042 81.5781 55.2318 81.6667 54.9297 81.8438C54.6328 82.0156 54.3958 82.25 54.2188 82.5469C54.0469 82.8385 53.9219 83.1641 53.8438 83.5234C53.7708 83.8776 53.7344 84.2396 53.7344 84.6094V84.9375C53.7344 85.3073 53.7708 85.6719 53.8438 86.0312C53.9167 86.3906 54.0391 86.7161 54.2109 87.0078C54.388 87.2995 54.625 87.5339 54.9219 87.7109C55.224 87.8828 55.599 87.9688 56.0469 87.9688ZM64.4844 80.5469V89H63.0312V80.5469H64.4844ZM67.3203 80.5469V81.7188H60.25V80.5469H67.3203ZM70.1875 82.1719V92.25H68.7344V80.5469H70.0625L70.1875 82.1719ZM75.8828 84.7031V84.8672C75.8828 85.4818 75.8099 86.0521 75.6641 86.5781C75.5182 87.099 75.3047 87.5521 75.0234 87.9375C74.7474 88.3229 74.4062 88.6224 74 88.8359C73.5938 89.0495 73.1276 89.1562 72.6016 89.1562C72.0651 89.1562 71.5911 89.0677 71.1797 88.8906C70.7682 88.7135 70.4193 88.4557 70.1328 88.1172C69.8464 87.7786 69.6172 87.3724 69.4453 86.8984C69.2786 86.4245 69.1641 85.8906 69.1016 85.2969V84.4219C69.1641 83.7969 69.2812 83.237 69.4531 82.7422C69.625 82.2474 69.8516 81.8255 70.1328 81.4766C70.4193 81.1224 70.7656 80.8542 71.1719 80.6719C71.5781 80.4844 72.0469 80.3906 72.5781 80.3906C73.1094 80.3906 73.5807 80.4948 73.9922 80.7031C74.4036 80.9062 74.75 81.1979 75.0312 81.5781C75.3125 81.9583 75.5234 82.4141 75.6641 82.9453C75.8099 83.4714 75.8828 84.0573 75.8828 84.7031ZM74.4297 84.8672V84.7031C74.4297 84.2812 74.3854 83.8854 74.2969 83.5156C74.2083 83.1406 74.0703 82.8125 73.8828 82.5312C73.7005 82.2448 73.4661 82.0208 73.1797 81.8594C72.8932 81.6927 72.5521 81.6094 72.1562 81.6094C71.7917 81.6094 71.474 81.6719 71.2031 81.7969C70.9375 81.9219 70.7109 82.0911 70.5234 82.3047C70.3359 82.513 70.1823 82.7526 70.0625 83.0234C69.9479 83.2891 69.862 83.5651 69.8047 83.8516V85.875C69.9089 86.2396 70.0547 86.5833 70.2422 86.9062C70.4297 87.224 70.6797 87.4818 70.9922 87.6797C71.3047 87.8724 71.6979 87.9688 72.1719 87.9688C72.5625 87.9688 72.8984 87.888 73.1797 87.7266C73.4661 87.5599 73.7005 87.3333 73.8828 87.0469C74.0703 86.7604 74.2083 86.4323 74.2969 86.0625C74.3854 85.6875 74.4297 85.2891 74.4297 84.8672ZM77.3438 84.8672V84.6875C77.3438 84.0781 77.4323 83.513 77.6094 82.9922C77.7865 82.4661 78.0417 82.0104 78.375 81.625C78.7083 81.2344 79.112 80.9323 79.5859 80.7188C80.0599 80.5 80.5911 80.3906 81.1797 80.3906C81.7734 80.3906 82.3073 80.5 82.7812 80.7188C83.2604 80.9323 83.6667 81.2344 84 81.625C84.3385 82.0104 84.5964 82.4661 84.7734 82.9922C84.9505 83.513 85.0391 84.0781 85.0391 84.6875V84.8672C85.0391 85.4766 84.9505 86.0417 84.7734 86.5625C84.5964 87.0833 84.3385 87.5391 84 87.9297C83.6667 88.3151 83.263 88.6172 82.7891 88.8359C82.3203 89.0495 81.7891 89.1562 81.1953 89.1562C80.6016 89.1562 80.0677 89.0495 79.5938 88.8359C79.1198 88.6172 78.7135 88.3151 78.375 87.9297C78.0417 87.5391 77.7865 87.0833 77.6094 86.5625C77.4323 86.0417 77.3438 85.4766 77.3438 84.8672ZM78.7891 84.6875V84.8672C78.7891 85.2891 78.8385 85.6875 78.9375 86.0625C79.0365 86.4323 79.1849 86.7604 79.3828 87.0469C79.5859 87.3333 79.8385 87.5599 80.1406 87.7266C80.4427 87.888 80.7943 87.9688 81.1953 87.9688C81.5911 87.9688 81.9375 87.888 82.2344 87.7266C82.5365 87.5599 82.7865 87.3333 82.9844 87.0469C83.1823 86.7604 83.3307 86.4323 83.4297 86.0625C83.5339 85.6875 83.5859 85.2891 83.5859 84.8672V84.6875C83.5859 84.2708 83.5339 83.8776 83.4297 83.5078C83.3307 83.1328 83.1797 82.8021 82.9766 82.5156C82.7786 82.224 82.5286 81.9948 82.2266 81.8281C81.9297 81.6615 81.5807 81.5781 81.1797 81.5781C80.7839 81.5781 80.4349 81.6615 80.1328 81.8281C79.8359 81.9948 79.5859 82.224 79.3828 82.5156C79.1849 82.8021 79.0365 83.1328 78.9375 83.5078C78.8385 83.8776 78.7891 84.2708 78.7891 84.6875ZM88.4141 86.7109L92.3125 80.5469H93.7656V89H92.3125V82.8359L88.4141 89H86.9766V80.5469H88.4141V86.7109ZM99.5312 80.5469V89H98.0781V80.5469H99.5312ZM102.367 80.5469V81.7188H95.2969V80.5469H102.367ZM106.672 89.1562C106.083 89.1562 105.549 89.0573 105.07 88.8594C104.596 88.6562 104.188 88.3724 103.844 88.0078C103.505 87.6432 103.245 87.2109 103.062 86.7109C102.88 86.2109 102.789 85.6641 102.789 85.0703V84.7422C102.789 84.0547 102.891 83.4427 103.094 82.9062C103.297 82.3646 103.573 81.9062 103.922 81.5312C104.271 81.1562 104.667 80.8724 105.109 80.6797C105.552 80.487 106.01 80.3906 106.484 80.3906C107.089 80.3906 107.609 80.4948 108.047 80.7031C108.49 80.9115 108.852 81.2031 109.133 81.5781C109.414 81.9479 109.622 82.3854 109.758 82.8906C109.893 83.3906 109.961 83.9375 109.961 84.5312V85.1797H103.648V84H108.516V83.8906C108.495 83.5156 108.417 83.151 108.281 82.7969C108.151 82.4427 107.943 82.151 107.656 81.9219C107.37 81.6927 106.979 81.5781 106.484 81.5781C106.156 81.5781 105.854 81.6484 105.578 81.7891C105.302 81.9245 105.065 82.1276 104.867 82.3984C104.669 82.6693 104.516 83 104.406 83.3906C104.297 83.7812 104.242 84.2318 104.242 84.7422V85.0703C104.242 85.4714 104.297 85.849 104.406 86.2031C104.521 86.5521 104.685 86.8594 104.898 87.125C105.117 87.3906 105.38 87.599 105.688 87.75C106 87.901 106.354 87.9766 106.75 87.9766C107.26 87.9766 107.693 87.8724 108.047 87.6641C108.401 87.4557 108.711 87.1771 108.977 86.8281L109.852 87.5234C109.669 87.7995 109.438 88.0625 109.156 88.3125C108.875 88.5625 108.529 88.7656 108.117 88.9219C107.711 89.0781 107.229 89.1562 106.672 89.1562ZM117.297 80.5469V81.7422H113.211V80.5469H117.297ZM118.57 80.5469V89H117.125V80.5469H118.57ZM112.859 80.5469H114.312L114.094 84.625C114.057 85.2552 113.997 85.8125 113.914 86.2969C113.836 86.776 113.727 87.1875 113.586 87.5312C113.451 87.875 113.279 88.1562 113.07 88.375C112.867 88.5885 112.622 88.7474 112.336 88.8516C112.049 88.9505 111.719 89 111.344 89H110.891V87.7266L111.203 87.7031C111.427 87.6875 111.617 87.6354 111.773 87.5469C111.935 87.4583 112.07 87.3281 112.18 87.1562C112.289 86.9792 112.378 86.7526 112.445 86.4766C112.518 86.2005 112.573 85.8724 112.609 85.4922C112.651 85.112 112.682 84.6693 112.703 84.1641L112.859 80.5469ZM122.086 83.4531H124.625C125.307 83.4531 125.883 83.5729 126.352 83.8125C126.82 84.0469 127.174 84.3724 127.414 84.7891C127.659 85.2005 127.781 85.6693 127.781 86.1953C127.781 86.5859 127.714 86.9531 127.578 87.2969C127.443 87.6354 127.24 87.9323 126.969 88.1875C126.703 88.4427 126.372 88.6432 125.977 88.7891C125.586 88.9297 125.135 89 124.625 89H121.031V80.5469H122.477V87.8125H124.625C125.042 87.8125 125.375 87.737 125.625 87.5859C125.875 87.4349 126.055 87.2396 126.164 87C126.273 86.7604 126.328 86.5104 126.328 86.25C126.328 85.9948 126.273 85.7448 126.164 85.5C126.055 85.2552 125.875 85.0521 125.625 84.8906C125.375 84.724 125.042 84.6406 124.625 84.6406H122.086V83.4531ZM135.32 84.2109V85.3828H130.852V84.2109H135.32ZM131.156 80.5469V89H129.711V80.5469H131.156ZM136.492 80.5469V89H135.039V80.5469H136.492ZM143.805 87.5547V83.2031C143.805 82.8698 143.737 82.5807 143.602 82.3359C143.471 82.0859 143.273 81.8932 143.008 81.7578C142.742 81.6224 142.414 81.5547 142.023 81.5547C141.659 81.5547 141.339 81.6172 141.062 81.7422C140.792 81.8672 140.578 82.0312 140.422 82.2344C140.271 82.4375 140.195 82.6562 140.195 82.8906H138.75C138.75 82.5885 138.828 82.2891 138.984 81.9922C139.141 81.6953 139.365 81.4271 139.656 81.1875C139.953 80.9427 140.307 80.75 140.719 80.6094C141.135 80.4635 141.599 80.3906 142.109 80.3906C142.724 80.3906 143.266 80.4948 143.734 80.7031C144.208 80.9115 144.578 81.2266 144.844 81.6484C145.115 82.0651 145.25 82.5885 145.25 83.2188V87.1562C145.25 87.4375 145.273 87.737 145.32 88.0547C145.372 88.3724 145.448 88.6458 145.547 88.875V89H144.039C143.966 88.8333 143.909 88.612 143.867 88.3359C143.826 88.0547 143.805 87.7943 143.805 87.5547ZM144.055 83.875L144.07 84.8906H142.609C142.198 84.8906 141.831 84.9245 141.508 84.9922C141.185 85.0547 140.914 85.151 140.695 85.2812C140.477 85.4115 140.31 85.5755 140.195 85.7734C140.081 85.9661 140.023 86.1927 140.023 86.4531C140.023 86.7188 140.083 86.9609 140.203 87.1797C140.323 87.3984 140.503 87.5729 140.742 87.7031C140.987 87.8281 141.286 87.8906 141.641 87.8906C142.083 87.8906 142.474 87.7969 142.812 87.6094C143.151 87.4219 143.419 87.1927 143.617 86.9219C143.82 86.651 143.93 86.388 143.945 86.1328L144.562 86.8281C144.526 87.0469 144.427 87.2891 144.266 87.5547C144.104 87.8203 143.888 88.0755 143.617 88.3203C143.352 88.5599 143.034 88.7604 142.664 88.9219C142.299 89.0781 141.888 89.1562 141.43 89.1562C140.857 89.1562 140.354 89.0443 139.922 88.8203C139.495 88.5964 139.161 88.2969 138.922 87.9219C138.688 87.5417 138.57 87.1172 138.57 86.6484C138.57 86.1953 138.659 85.7969 138.836 85.4531C139.013 85.1042 139.268 84.8151 139.602 84.5859C139.935 84.3516 140.336 84.1745 140.805 84.0547C141.273 83.9349 141.797 83.875 142.375 83.875H144.055ZM149.234 84.9688H150.797L148.352 89H146.789L149.234 84.9688ZM150.445 80.5469H153.977V89H152.531V81.7188H150.445C150.034 81.7188 149.698 81.7891 149.438 81.9297C149.177 82.0651 148.987 82.2422 148.867 82.4609C148.747 82.6797 148.688 82.9062 148.688 83.1406C148.688 83.3698 148.742 83.5911 148.852 83.8047C148.961 84.013 149.133 84.1849 149.367 84.3203C149.602 84.4557 149.904 84.5234 150.273 84.5234H152.922V85.7109H150.273C149.789 85.7109 149.359 85.6458 148.984 85.5156C148.609 85.3854 148.292 85.2057 148.031 84.9766C147.771 84.7422 147.573 84.4688 147.438 84.1562C147.302 83.8385 147.234 83.4948 147.234 83.125C147.234 82.7552 147.305 82.4141 147.445 82.1016C147.591 81.7891 147.799 81.5156 148.07 81.2812C148.346 81.0469 148.682 80.8672 149.078 80.7422C149.479 80.612 149.935 80.5469 150.445 80.5469ZM161.844 80.5469V89H160.398V80.5469H161.844ZM167.391 80.5469L163.383 85.3906H161.359L161.141 84.125H162.797L165.633 80.5469H167.391ZM165.836 89L162.727 85.1719L163.656 84.125L167.672 89H165.836ZM168.375 84.8672V84.6875C168.375 84.0781 168.464 83.513 168.641 82.9922C168.818 82.4661 169.073 82.0104 169.406 81.625C169.74 81.2344 170.143 80.9323 170.617 80.7188C171.091 80.5 171.622 80.3906 172.211 80.3906C172.805 80.3906 173.339 80.5 173.812 80.7188C174.292 80.9323 174.698 81.2344 175.031 81.625C175.37 82.0104 175.628 82.4661 175.805 82.9922C175.982 83.513 176.07 84.0781 176.07 84.6875V84.8672C176.07 85.4766 175.982 86.0417 175.805 86.5625C175.628 87.0833 175.37 87.5391 175.031 87.9297C174.698 88.3151 174.294 88.6172 173.82 88.8359C173.352 89.0495 172.82 89.1562 172.227 89.1562C171.633 89.1562 171.099 89.0495 170.625 88.8359C170.151 88.6172 169.745 88.3151 169.406 87.9297C169.073 87.5391 168.818 87.0833 168.641 86.5625C168.464 86.0417 168.375 85.4766 168.375 84.8672ZM169.82 84.6875V84.8672C169.82 85.2891 169.87 85.6875 169.969 86.0625C170.068 86.4323 170.216 86.7604 170.414 87.0469C170.617 87.3333 170.87 87.5599 171.172 87.7266C171.474 87.888 171.826 87.9688 172.227 87.9688C172.622 87.9688 172.969 87.888 173.266 87.7266C173.568 87.5599 173.818 87.3333 174.016 87.0469C174.214 86.7604 174.362 86.4323 174.461 86.0625C174.565 85.6875 174.617 85.2891 174.617 84.8672V84.6875C174.617 84.2708 174.565 83.8776 174.461 83.5078C174.362 83.1328 174.211 82.8021 174.008 82.5156C173.81 82.224 173.56 81.9948 173.258 81.8281C172.961 81.6615 172.612 81.5781 172.211 81.5781C171.815 81.5781 171.466 81.6615 171.164 81.8281C170.867 81.9948 170.617 82.224 170.414 82.5156C170.216 82.8021 170.068 83.1328 169.969 83.5078C169.87 83.8776 169.82 84.2708 169.82 84.6875ZM182.742 87.0781L185.617 80.5469H187.008L183.242 89H182.242L178.492 80.5469H179.883L182.742 87.0781ZM179.461 80.5469V89H178.016V80.5469H179.461ZM185.977 89V80.5469H187.43V89H185.977ZM195.391 80.5469V81.7422H191.117V80.5469H195.391ZM191.328 80.5469V89H189.883V80.5469H191.328ZM196.672 80.5469V89H195.219V80.5469H196.672ZM203.977 87.5547V83.2031C203.977 82.8698 203.909 82.5807 203.773 82.3359C203.643 82.0859 203.445 81.8932 203.18 81.7578C202.914 81.6224 202.586 81.5547 202.195 81.5547C201.831 81.5547 201.51 81.6172 201.234 81.7422C200.964 81.8672 200.75 82.0312 200.594 82.2344C200.443 82.4375 200.367 82.6562 200.367 82.8906H198.922C198.922 82.5885 199 82.2891 199.156 81.9922C199.312 81.6953 199.536 81.4271 199.828 81.1875C200.125 80.9427 200.479 80.75 200.891 80.6094C201.307 80.4635 201.771 80.3906 202.281 80.3906C202.896 80.3906 203.438 80.4948 203.906 80.7031C204.38 80.9115 204.75 81.2266 205.016 81.6484C205.286 82.0651 205.422 82.5885 205.422 83.2188V87.1562C205.422 87.4375 205.445 87.737 205.492 88.0547C205.544 88.3724 205.62 88.6458 205.719 88.875V89H204.211C204.138 88.8333 204.081 88.612 204.039 88.3359C203.997 88.0547 203.977 87.7943 203.977 87.5547ZM204.227 83.875L204.242 84.8906H202.781C202.37 84.8906 202.003 84.9245 201.68 84.9922C201.357 85.0547 201.086 85.151 200.867 85.2812C200.648 85.4115 200.482 85.5755 200.367 85.7734C200.253 85.9661 200.195 86.1927 200.195 86.4531C200.195 86.7188 200.255 86.9609 200.375 87.1797C200.495 87.3984 200.674 87.5729 200.914 87.7031C201.159 87.8281 201.458 87.8906 201.812 87.8906C202.255 87.8906 202.646 87.7969 202.984 87.6094C203.323 87.4219 203.591 87.1927 203.789 86.9219C203.992 86.651 204.102 86.388 204.117 86.1328L204.734 86.8281C204.698 87.0469 204.599 87.2891 204.438 87.5547C204.276 87.8203 204.06 88.0755 203.789 88.3203C203.523 88.5599 203.206 88.7604 202.836 88.9219C202.471 89.0781 202.06 89.1562 201.602 89.1562C201.029 89.1562 200.526 89.0443 200.094 88.8203C199.667 88.5964 199.333 88.2969 199.094 87.9219C198.859 87.5417 198.742 87.1172 198.742 86.6484C198.742 86.1953 198.831 85.7969 199.008 85.4531C199.185 85.1042 199.44 84.8151 199.773 84.5859C200.107 84.3516 200.508 84.1745 200.977 84.0547C201.445 83.9349 201.969 83.875 202.547 83.875H204.227ZM213.43 84.2109V85.3828H208.961V84.2109H213.43ZM209.266 80.5469V89H207.82V80.5469H209.266ZM214.602 80.5469V89H213.148V80.5469H214.602ZM218.492 86.7109L222.391 80.5469H223.844V89H222.391V82.8359L218.492 89H217.055V80.5469H218.492V86.7109ZM227.875 84.9688H229.438L226.992 89H225.43L227.875 84.9688ZM229.086 80.5469H232.617V89H231.172V81.7188H229.086C228.674 81.7188 228.339 81.7891 228.078 81.9297C227.818 82.0651 227.628 82.2422 227.508 82.4609C227.388 82.6797 227.328 82.9062 227.328 83.1406C227.328 83.3698 227.383 83.5911 227.492 83.8047C227.602 84.013 227.773 84.1849 228.008 84.3203C228.242 84.4557 228.544 84.5234 228.914 84.5234H231.562V85.7109H228.914C228.43 85.7109 228 85.6458 227.625 85.5156C227.25 85.3854 226.932 85.2057 226.672 84.9766C226.411 84.7422 226.214 84.4688 226.078 84.1562C225.943 83.8385 225.875 83.4948 225.875 83.125C225.875 82.7552 225.945 82.4141 226.086 82.1016C226.232 81.7891 226.44 81.5156 226.711 81.2812C226.987 81.0469 227.323 80.8672 227.719 80.7422C228.12 80.612 228.576 80.5469 229.086 80.5469Z" fill="#383434"/>
<defs>
<linearGradient id="paint0_linear_75_423" x1="3" y1="19.6684" x2="91.0651" y2="20.821" gradientUnits="userSpaceOnUse">
<stop offset="0.513007" stop-color="#9ECB5D"/>
<stop offset="1" stop-color="#498837"/>
</linearGradient>
<linearGradient id="paint1_linear_75_423" x1="18" y1="43.7447" x2="236.58" y2="90.3182" gradientUnits="userSpaceOnUse">
<stop stop-color="#9ECB5D"/>
<stop offset="1" stop-color="#498837"/>
</linearGradient>
</defs>
</svg>

