<svg width="36" height="36" viewBox="0 0 36 36" fill="none" xmlns="http://www.w3.org/2000/svg">
<g clip-path="url(#clip0_75_181)">
<path d="M27.9078 0.821777H8.09215C6.18253 0.821777 4.62891 2.30306 4.62891 4.12375V31.8435C4.62891 33.6642 6.18253 35.1454 8.09215 35.1454H27.9078C29.8174 35.1454 31.371 33.6642 31.371 31.8435V4.12375C31.371 2.30306 29.8174 0.821777 27.9078 0.821777ZM9.37563 6.52648C9.37563 5.97113 9.84785 5.5209 10.4303 5.5209H25.5695C26.152 5.5209 26.6242 5.97113 26.6242 6.52648V8.51202C26.6242 9.06737 26.152 9.5176 25.5695 9.5176H10.4303C9.84785 9.5176 9.37563 9.06737 9.37563 8.51202V6.52648ZM12.9265 29.1064C12.9265 29.6617 12.4543 30.1119 11.8718 30.1119H10.4304C9.84792 30.1119 9.3757 29.6617 9.3757 29.1064V28.1536C9.3757 27.5983 9.84792 27.148 10.4304 27.148H11.8718C12.4543 27.148 12.9265 27.5983 12.9265 28.1536V29.1064ZM12.9265 23.1554C12.9265 23.7107 12.4543 24.1609 11.8718 24.1609H10.4304C9.84792 24.1609 9.3757 23.7107 9.3757 23.1554V22.2026C9.3757 21.6473 9.84792 21.197 10.4304 21.197H11.8718C12.4543 21.197 12.9265 21.6473 12.9265 22.2026V23.1554ZM19.8618 29.1064C19.8618 29.6617 19.3895 30.1119 18.8071 30.1119H17.3657C16.7831 30.1119 16.311 29.6617 16.311 29.1064V28.1536C16.311 27.5983 16.7831 27.148 17.3657 27.148H18.8071C19.3895 27.148 19.8618 27.5983 19.8618 28.1536V29.1064ZM19.8618 23.1554C19.8618 23.7107 19.3895 24.1609 18.8071 24.1609H17.3657C16.7831 24.1609 16.311 23.7107 16.311 23.1554V22.2026C16.311 21.6473 16.7831 21.197 17.3657 21.197H18.8071C19.3895 21.197 19.8618 21.6473 19.8618 22.2026V23.1554ZM19.8618 17.2043C19.8618 17.7597 19.3895 18.2099 18.8071 18.2099H10.4303C9.84785 18.2099 9.37563 17.7596 9.37563 17.2043V16.2515C9.37563 15.6962 9.84785 15.246 10.4303 15.246H18.8071C19.3895 15.246 19.8618 15.6962 19.8618 16.2515V17.2043ZM26.797 29.1064C26.797 29.6617 26.3248 30.1119 25.7423 30.1119H24.3009C23.7185 30.1119 23.2463 29.6617 23.2463 29.1064V28.1536C23.2463 27.5983 23.7185 27.148 24.3009 27.148H25.7423C26.3248 27.148 26.797 27.5983 26.797 28.1536V29.1064ZM26.797 23.1554C26.797 23.7107 26.3248 24.1609 25.7423 24.1609H24.3009C23.7185 24.1609 23.2463 23.7107 23.2463 23.1554V22.2026C23.2463 21.6473 23.7185 21.197 24.3009 21.197H25.7423C26.3248 21.197 26.797 21.6473 26.797 22.2026V23.1554ZM26.797 17.2043C26.797 17.7597 26.3248 18.2099 25.7423 18.2099H24.3009C23.7185 18.2099 23.2463 17.7596 23.2463 17.2043V16.2515C23.2463 15.6962 23.7185 15.246 24.3009 15.246H25.7423C26.3248 15.246 26.797 15.6962 26.797 16.2515V17.2043Z" fill="#498837"/>
</g>
<defs>
<clipPath id="clip0_75_181">
<rect width="36" height="34.3237" fill="white" transform="translate(0 0.821777)"/>
</clipPath>
</defs>
</svg>
