<svg width="36" height="35" viewBox="0 0 36 35" fill="none" xmlns="http://www.w3.org/2000/svg">
<g clip-path="url(#clip0_75_185)">
<path d="M35.4721 21.2271L29.6686 6.51239C29.6669 6.50951 29.6669 6.50663 29.6656 6.50375L29.6639 6.50217C28.899 4.56146 26.9234 3.25867 24.75 3.25867C22.5766 3.25867 20.601 4.56146 19.8344 6.50375C19.6125 7.06729 19.4999 7.66068 19.4999 8.26429V14.7H16.5001V8.26429C16.5001 5.50393 14.1449 3.25867 11.25 3.25867C9.07663 3.25867 7.10101 4.56146 6.33444 6.50375C6.33307 6.50663 6.33307 6.50951 6.33142 6.51239L0.527893 21.2229C0.527893 21.2242 0.52652 21.2242 0.52652 21.2242C0.17688 22.1124 0 23.0434 0 23.9958C0 28.3337 3.70212 31.8618 8.24991 31.8618C12.798 31.8618 16.5001 28.3337 16.5001 23.9958V23.2809H19.4999V23.9958C19.4999 28.3337 23.202 31.8618 27.7501 31.8618C32.2979 31.8618 36 28.3337 36 23.9958C36 23.0434 35.8231 22.1124 35.4721 21.2271ZM8.24991 29.0014C5.35501 29.0014 3.00009 26.7562 3.00009 23.9958C3.00009 23.3896 3.11243 22.7959 3.33463 22.2339C4.09955 20.2945 6.07489 18.9904 8.24991 18.9904C11.1451 18.9904 13.5 21.2357 13.5 23.9958C13.5 26.7562 11.1451 29.0014 8.24991 29.0014ZM27.7501 29.0014C24.8549 29.0014 22.5 26.7562 22.5 23.9958C22.5 21.2357 24.8549 18.9904 27.7501 18.9904C29.9251 18.9904 31.9005 20.2945 32.6654 22.2339C32.8876 22.7959 32.9999 23.3896 32.9999 23.9958C32.9999 26.7562 30.645 29.0014 27.7501 29.0014Z" fill="#498837"/>
</g>
<defs>
<clipPath id="clip0_75_185">
<rect width="36" height="34.3237" fill="white" transform="translate(0 0.375977)"/>
</clipPath>
</defs>
</svg>
